<svg version="1.1" viewBox="0.0 0.0 600.0 371.0" fill="none" stroke="none" stroke-linecap="square" stroke-miterlimit="10" width="600" height="371" xmlns:xlink="http://www.w3.org/1999/xlink" xmlns="http://www.w3.org/2000/svg"><path fill="#ffffff" fill-opacity="0.0" d="M0 0L600.0 0L600.0 371.0L0 371.0L0 0Z" fill-rule="nonzero"/><path fill="#0c617d" d="M300.0 114.54625C307.0024 114.54625 313.977 115.16302 320.7594 116.38201L320.7594 141.42451C313.977 140.20552 307.0024 139.58875 300.0 139.58875Z" fill-rule="nonzero"/><path fill="#118ab2" d="M300.0 56.11375C314.0048 56.11375 327.95395 57.347282 341.51877 59.78528L320.7594 116.38201C313.977 115.16302 307.0024 114.54625 300.0 114.54625Z" fill-rule="nonzero"/><path fill="#049670" d="M320.7594 116.38201C327.5418 117.60101 334.07812 119.41256 340.2144 121.77396L340.2144 146.81647C334.07812 144.45506 327.5418 142.64351 320.7594 141.42451Z" fill-rule="nonzero"/><path fill="#06d6a0" d="M341.51877 59.78528C355.0836 62.223278 368.15628 65.84637 380.42877 70.56917L340.2144 121.77396C334.07812 119.41256 327.5418 117.60101 320.7594 116.38201Z" fill-rule="nonzero"/><path fill="#b39247" d="M340.2144 121.77396C352.53568 126.51553 362.9463 133.3589 370.4803 141.66905L370.4803 166.71155C362.9463 158.4014 352.53568 151.55803 340.2144 146.81647Z" fill-rule="nonzero"/><path fill="#ffd166" d="M380.42877 70.56917C405.07132 80.05232 425.8926 93.73906 440.96054 110.35935L370.4803 141.66905C362.9463 133.3589 352.53568 126.51553 340.2144 121.77396Z" fill-rule="nonzero"/><path fill="#b34b4b" d="M259.7856 121.77396C272.10687 117.03239 285.93954 114.54625 300.0 114.54625L300.0 139.58875C285.93954 139.58875 272.10687 142.07489 259.7856 146.81647Z" fill-rule="nonzero"/><path fill="#ff6b6b" d="M219.57123 70.56917C244.21378 61.08602 271.8791 56.11375 300.0 56.11375L300.0 114.54625C285.93954 114.54625 272.10687 117.03239 259.7856 121.77396Z" fill-rule="nonzero"/><path fill="#6b30b3" d="M224.46956 148.0994C231.97528 136.93408 244.3379 127.71867 259.7856 121.77396L259.7856 146.81647C244.3379 152.76117 231.97528 161.97658 224.46956 173.1419Z" fill-rule="nonzero"/><path fill="#9945ff" d="M148.93912 123.220055C163.95056 100.889404 188.67583 82.458595 219.57123 70.56917L259.7856 121.77396C244.3379 127.71867 231.97528 136.93408 224.46956 148.0994Z" fill-rule="nonzero"/><path fill="#0ea968" d="M466.95 198.02126C466.95 262.564 392.20395 314.88626 300.0 314.88626C207.79607 314.88626 133.05 262.564 133.05 198.02126L133.05 172.97874C133.05 237.52151 207.79607 289.84375 300.0 289.84375C392.20395 289.84375 466.95 237.52151 466.95 172.97874Z" fill-rule="nonzero"/><path fill="#0ea968" d="M370.4803 141.66905C378.96796 151.03116 383.475 161.89052 383.475 172.97874L383.475 198.02126C383.475 186.93301 378.96796 176.07365 370.4803 166.71155Z" fill-rule="nonzero"/><path fill="#0ea968" d="M216.525 172.97874C216.525 164.37741 219.23775 155.88213 224.46956 148.0994L224.46956 173.1419C219.23775 180.92464 216.525 189.4199 216.525 198.02126Z" fill-rule="nonzero"/><path fill="#14f195" d="M440.96054 110.35935C483.9022 157.725 472.70535 219.7675 414.28513 258.16968C355.86493 296.57184 266.70462 300.49847 201.86925 267.52454C137.03387 234.55057 114.81677 173.97963 148.93912 123.220055L224.46956 148.0994C207.40839 173.47919 218.51694 203.76465 250.93463 220.25163C283.35233 236.73862 327.93246 234.7753 357.14258 215.5742C386.3527 196.37312 391.9511 165.35188 370.4803 141.66905Z" fill-rule="nonzero"/><path fill="#b7b7b7" d="M19.471874 60.944954L19.471874 52.351204L23.89375 52.351204Q25.1125 52.351204 25.76875 52.569954Q26.425 52.77308 26.815624 53.351204Q27.221874 53.913704 27.221874 54.74183Q27.221874 55.46058 26.909374 55.976204Q26.6125 56.49183 26.08125 56.819954Q25.7375 57.02308 25.14375 57.14808Q25.6125 57.30433 25.83125 57.476204Q25.9875 57.569954 26.253124 57.92933Q26.534374 58.27308 26.628124 58.46058L27.909374 60.944954L24.909374 60.944954L23.503124 58.319954Q23.221874 57.80433 23.01875 57.663704Q22.721874 57.46058 22.3625 57.46058L22.128124 57.46058L22.128124 60.944954L19.471874 60.944954ZM22.128124 55.83558L23.253124 55.83558Q23.425 55.83558 23.95625 55.71058Q24.221874 55.663704 24.378124 55.444954Q24.55 55.226204 24.55 54.944954Q24.55 54.538704 24.284374 54.319954Q24.01875 54.08558 23.3 54.08558L22.128124 54.08558L22.128124 55.83558ZM35.175 58.42933L30.39375 58.42933Q30.45625 58.99183 30.70625 59.27308Q31.05 59.67933 31.6125 59.67933Q31.95625 59.67933 32.284374 59.507454Q32.471874 59.39808 32.690624 59.11683L35.05 59.33558Q34.503124 60.27308 33.7375 60.67933Q32.9875 61.08558 31.565624 61.08558Q30.315624 61.08558 29.6125 60.74183Q28.909374 60.382454 28.440624 59.632454Q27.971874 58.86683 27.971874 57.851204Q27.971874 56.382454 28.909374 55.49183Q29.846874 54.58558 31.4875 54.58558Q32.83125 54.58558 33.596874 54.99183Q34.378124 55.382454 34.76875 56.163704Q35.175 56.92933 35.175 58.14808L35.175 58.42933ZM32.753124 57.288704Q32.690624 56.58558 32.378124 56.288704Q32.08125 55.99183 31.58125 55.99183Q31.01875 55.99183 30.675 56.444954Q30.45625 56.726204 30.409374 57.288704L32.753124 57.288704ZM35.846874 59.226204L38.221874 58.99183Q38.3625 59.413704 38.628124 59.601204Q38.89375 59.788704 39.33125 59.788704Q39.815624 59.788704 40.08125 59.58558Q40.284374 59.42933 40.284374 59.194954Q40.284374 58.944954 40.003124 58.80433Q39.815624 58.694954 38.9875 58.55433Q37.7375 58.33558 37.253124 58.14808Q36.76875 57.96058 36.440624 57.52308Q36.1125 57.08558 36.1125 56.52308Q36.1125 55.913704 36.471874 55.476204Q36.83125 55.02308 37.45625 54.80433Q38.08125 54.58558 39.14375 54.58558Q40.253124 54.58558 40.784374 54.757454Q41.315624 54.913704 41.659374 55.27308Q42.01875 55.632454 42.253124 56.24183L39.9875 56.46058Q39.909374 56.163704 39.70625 56.02308Q39.425 55.83558 39.01875 55.83558Q38.6125 55.83558 38.425 55.99183Q38.253124 56.132454 38.253124 56.33558Q38.253124 56.55433 38.4875 56.67933Q38.721874 56.788704 39.503124 56.882454Q40.690624 57.02308 41.26875 57.27308Q41.846874 57.507454 42.159374 57.96058Q42.471874 58.39808 42.471874 58.92933Q42.471874 59.46058 42.14375 59.976204Q41.815624 60.49183 41.1125 60.788704Q40.409374 61.08558 39.20625 61.08558Q37.503124 61.08558 36.76875 60.601204Q36.05 60.11683 35.846874 59.226204ZM50.175 58.42933L45.39375 58.42933Q45.45625 58.99183 45.70625 59.27308Q46.05 59.67933 46.6125 59.67933Q46.95625 59.67933 47.284374 59.507454Q47.471874 59.39808 47.690624 59.11683L50.05 59.33558Q49.503124 60.27308 48.7375 60.67933Q47.9875 61.08558 46.565624 61.08558Q45.315624 61.08558 44.6125 60.74183Q43.909374 60.382454 43.440624 59.632454Q42.971874 58.86683 42.971874 57.851204Q42.971874 56.382454 43.909374 55.49183Q44.846874 54.58558 46.4875 54.58558Q47.83125 54.58558 48.596874 54.99183Q49.378124 55.382454 49.76875 56.163704Q50.175 56.92933 50.175 58.14808L50.175 58.42933ZM47.753124 57.288704Q47.690624 56.58558 47.378124 56.288704Q47.08125 55.99183 46.58125 55.99183Q46.01875 55.99183 45.675 56.444954Q45.45625 56.726204 45.409374 57.288704L47.753124 57.288704ZM51.3 54.726204L53.534374 54.726204L53.534374 55.74183Q53.846874 55.08558 54.190624 54.83558Q54.534374 54.58558 55.034374 54.58558Q55.565624 54.58558 56.190624 54.913704L55.45625 56.601204Q55.034374 56.42933 54.784374 56.42933Q54.315624 56.42933 54.065624 56.819954Q53.690624 57.36683 53.690624 58.851204L53.690624 60.944954L51.3 60.944954L51.3 54.726204ZM55.565624 54.726204L58.05 54.726204L59.253124 58.663704L60.503124 54.726204L62.909374 54.726204L60.26875 60.944954L58.159374 60.944954L55.565624 54.726204ZM70.175 58.42933L65.39375 58.42933Q65.45625 58.99183 65.70625 59.27308Q66.05 59.67933 66.6125 59.67933Q66.95625 59.67933 67.28438 59.507454Q67.47188 59.39808 67.69063 59.11683L70.05 59.33558Q69.50313 60.27308 68.7375 60.67933Q67.9875 61.08558 66.56563 61.08558Q65.31563 61.08558 64.6125 60.74183Q63.909374 60.382454 63.440624 59.632454Q62.971874 58.86683 62.971874 57.851204Q62.971874 56.382454 63.909374 55.49183Q64.84688 54.58558 66.4875 54.58558Q67.83125 54.58558 68.59688 54.99183Q69.37813 55.382454 69.76875 56.163704Q70.175 56.92933 70.175 58.14808L70.175 58.42933ZM67.75313 57.288704Q67.69063 56.58558 67.37813 56.288704Q67.08125 55.99183 66.58125 55.99183Q66.01875 55.99183 65.675 56.444954Q65.45625 56.726204 65.40938 57.288704L67.75313 57.288704Z" fill-rule="nonzero"/><path fill="#9e9e9e" d="M20.471874 73.319954Q19.909374 73.02308 19.659374 72.663704Q19.3 72.14808 19.3 71.49183Q19.3 70.413704 20.315624 69.74183Q21.1125 69.21058 22.409374 69.21058Q24.128124 69.21058 24.95625 69.86683Q25.784374 70.52308 25.784374 71.52308Q25.784374 72.101204 25.45625 72.601204Q25.20625 72.976204 24.675 73.319954Q25.378124 73.663704 25.721874 74.21058Q26.065624 74.757454 26.065624 75.42933Q26.065624 76.069954 25.76875 76.632454Q25.471874 77.194954 25.034374 77.507454Q24.6125 77.80433 23.971874 77.944954Q23.33125 78.08558 22.596874 78.08558Q21.2375 78.08558 20.51875 77.77308Q19.8 77.444954 19.425 76.819954Q19.05 76.194954 19.05 75.413704Q19.05 74.663704 19.39375 74.14808Q19.753124 73.61683 20.471874 73.319954ZM21.55 71.632454Q21.55 72.08558 21.83125 72.36683Q22.1125 72.632454 22.565624 72.632454Q22.9875 72.632454 23.2375 72.36683Q23.503124 72.08558 23.503124 71.663704Q23.503124 71.21058 23.221874 70.944954Q22.95625 70.663704 22.534374 70.663704Q22.096874 70.663704 21.815624 70.944954Q21.55 71.21058 21.55 71.632454ZM21.425 75.33558Q21.425 75.89808 21.76875 76.27308Q22.1125 76.632454 22.565624 76.632454Q22.9875 76.632454 23.315624 76.27308Q23.659374 75.89808 23.659374 75.33558Q23.659374 74.757454 23.315624 74.39808Q22.9875 74.038704 22.534374 74.038704Q22.08125 74.038704 21.753124 74.39808Q21.425 74.74183 21.425 75.33558ZM27.284374 75.55433L29.83125 75.55433L29.83125 77.944954L27.284374 77.944954L27.284374 75.55433ZM31.05 73.61683Q31.05 71.163704 31.925 70.194954Q32.8 69.21058 34.6125 69.21058Q35.471874 69.21058 36.034374 69.42933Q36.596874 69.632454 36.940624 69.976204Q37.3 70.319954 37.503124 70.694954Q37.70625 71.069954 37.815624 71.58558Q38.065624 72.538704 38.065624 73.58558Q38.065624 75.92933 37.26875 77.007454Q36.4875 78.08558 34.55 78.08558Q33.45625 78.08558 32.784374 77.74183Q32.128124 77.39808 31.70625 76.726204Q31.39375 76.257454 31.221874 75.444954Q31.05 74.61683 31.05 73.61683ZM33.409374 73.61683Q33.409374 75.257454 33.690624 75.86683Q33.9875 76.46058 34.534374 76.46058Q34.909374 76.46058 35.175 76.21058Q35.440624 75.944954 35.565624 75.39808Q35.690624 74.851204 35.690624 73.67933Q35.690624 71.976204 35.39375 71.382454Q35.1125 70.788704 34.534374 70.788704Q33.940624 70.788704 33.675 71.39808Q33.409374 71.99183 33.409374 73.61683ZM46.425 69.21058L47.659374 69.21058L42.70625 78.382454L41.471874 78.382454L46.425 69.21058ZM39.128124 71.46058Q39.128124 70.86683 39.39375 70.33558Q39.659374 69.788704 40.190624 69.507454Q40.721874 69.21058 41.45625 69.21058Q42.534374 69.21058 43.159374 69.83558Q43.784374 70.444954 43.784374 71.46058Q43.784374 72.49183 43.159374 73.11683Q42.534374 73.726204 41.45625 73.726204Q40.721874 73.726204 40.190624 73.444954Q39.659374 73.14808 39.39375 72.61683Q39.128124 72.069954 39.128124 71.46058ZM40.784374 71.476204Q40.784374 72.194954 41.01875 72.52308Q41.159374 72.74183 41.45625 72.74183Q41.753124 72.74183 41.89375 72.52308Q42.128124 72.194954 42.128124 71.476204Q42.128124 70.757454 41.89375 70.413704Q41.753124 70.21058 41.45625 70.21058Q41.159374 70.21058 41.01875 70.413704Q40.784374 70.74183 40.784374 71.476204ZM45.33125 76.11683Q45.33125 75.507454 45.58125 74.976204Q45.846874 74.42933 46.378124 74.14808Q46.925 73.851204 47.64375 73.851204Q48.721874 73.851204 49.346874 74.476204Q49.971874 75.08558 49.971874 76.11683Q49.971874 77.132454 49.346874 77.757454Q48.721874 78.36683 47.64375 78.36683Q46.925 78.36683 46.378124 78.069954Q45.846874 77.788704 45.58125 77.257454Q45.33125 76.71058 45.33125 76.11683ZM46.971874 76.11683Q46.971874 76.851204 47.20625 77.17933Q47.346874 77.382454 47.64375 77.382454Q47.940624 77.382454 48.096874 77.17933Q48.33125 76.851204 48.33125 76.11683Q48.33125 75.39808 48.096874 75.05433Q47.940624 74.851204 47.64375 74.851204Q47.346874 74.851204 47.20625 75.069954Q46.971874 75.39808 46.971874 76.11683Z" fill-rule="nonzero"/><path stroke="#757575" stroke-width="1.0" stroke-linecap="butt" d="M18.55 65.444954L127.05 65.444954L260.55716 65.444954" fill-rule="nonzero"/><path fill="#9e9e9e" d="M262.55716 65.444954C262.55716 64.340385 261.66174 63.444954 260.55716 63.444954C259.4526 63.444954 258.55716 64.340385 258.55716 65.444954C258.55716 66.54952 259.4526 67.444954 260.55716 67.444954C261.66174 67.444954 262.55716 66.54952 262.55716 65.444954" fill-rule="nonzero"/><path fill="#b7b7b7" d="M19.534374 83.88538L22.190624 83.88538L22.190624 92.47913L19.534374 92.47913L19.534374 83.88538ZM24.440624 83.88538L26.925 83.88538L30.159374 88.63538L30.159374 83.88538L32.659374 83.88538L32.659374 92.47913L30.159374 92.47913L26.940624 87.76038L26.940624 92.47913L24.440624 92.47913L24.440624 83.88538ZM34.096874 88.18226Q34.096874 86.08851 35.26875 84.91663Q36.440624 83.74476 38.534374 83.74476Q40.675 83.74476 41.83125 84.90101Q43.003124 86.04163 43.003124 88.11976Q43.003124 89.61976 42.4875 90.58851Q41.9875 91.55726 41.01875 92.08851Q40.065624 92.61976 38.64375 92.61976Q37.190624 92.61976 36.2375 92.16663Q35.284374 91.69788 34.690624 90.69788Q34.096874 89.69788 34.096874 88.18226ZM36.753124 88.19788Q36.753124 89.49476 37.2375 90.07288Q37.721874 90.63538 38.55 90.63538Q39.409374 90.63538 39.878124 90.08851Q40.346874 89.52601 40.346874 88.08851Q40.346874 86.86976 39.846874 86.30726Q39.3625 85.74476 38.51875 85.74476Q37.721874 85.74476 37.2375 86.32288Q36.753124 86.88538 36.753124 88.19788Z" fill-rule="nonzero"/><path fill="#9e9e9e" d="M24.45625 100.74476L24.45625 109.47913L22.034374 109.47913L22.034374 103.76038Q21.45625 104.19788 20.909374 104.47913Q20.3625 104.74476 19.534374 104.99476L19.534374 103.04163Q20.753124 102.65101 21.425 102.10413Q22.096874 101.55726 22.471874 100.74476L24.45625 100.74476ZM27.05 105.15101Q27.05 102.69788 27.925 101.72913Q28.8 100.74476 30.6125 100.74476Q31.471874 100.74476 32.034374 100.96351Q32.596874 101.16663 32.940624 101.51038Q33.3 101.85413 33.503124 102.22913Q33.70625 102.60413 33.815624 103.11976Q34.065624 104.07288 34.065624 105.11976Q34.065624 107.46351 33.26875 108.54163Q32.4875 109.61976 30.55 109.61976Q29.45625 109.61976 28.784374 109.27601Q28.128124 108.93226 27.70625 108.26038Q27.39375 107.79163 27.221874 106.97913Q27.05 106.15101 27.05 105.15101ZM29.409374 105.15101Q29.409374 106.79163 29.690624 107.40101Q29.9875 107.99476 30.534374 107.99476Q30.909374 107.99476 31.175 107.74476Q31.440624 107.47913 31.565624 106.93226Q31.690624 106.38538 31.690624 105.21351Q31.690624 103.51038 31.39375 102.91663Q31.1125 102.32288 30.534374 102.32288Q29.940624 102.32288 29.675 102.93226Q29.409374 103.52601 29.409374 105.15101ZM35.284374 107.08851L37.83125 107.08851L37.83125 109.47913L35.284374 109.47913L35.284374 107.08851ZM39.05 105.15101Q39.05 102.69788 39.925 101.72913Q40.8 100.74476 42.6125 100.74476Q43.471874 100.74476 44.034374 100.96351Q44.596874 101.16663 44.940624 101.51038Q45.3 101.85413 45.503124 102.22913Q45.70625 102.60413 45.815624 103.11976Q46.065624 104.07288 46.065624 105.11976Q46.065624 107.46351 45.26875 108.54163Q44.4875 109.61976 42.55 109.61976Q41.45625 109.61976 40.784374 109.27601Q40.128124 108.93226 39.70625 108.26038Q39.39375 107.79163 39.221874 106.97913Q39.05 106.15101 39.05 105.15101ZM41.409374 105.15101Q41.409374 106.79163 41.690624 107.40101Q41.9875 107.99476 42.534374 107.99476Q42.909374 107.99476 43.175 107.74476Q43.440624 107.47913 43.565624 106.93226Q43.690624 106.38538 43.690624 105.21351Q43.690624 103.51038 43.39375 102.91663Q43.1125 102.32288 42.534374 102.32288Q41.940624 102.32288 41.675 102.93226Q41.409374 103.52601 41.409374 105.15101ZM54.425 100.74476L55.659374 100.74476L50.70625 109.91663L49.471874 109.91663L54.425 100.74476ZM47.128124 102.99476Q47.128124 102.40101 47.39375 101.86976Q47.659374 101.32288 48.190624 101.04163Q48.721874 100.74476 49.45625 100.74476Q50.534374 100.74476 51.159374 101.36976Q51.784374 101.97913 51.784374 102.99476Q51.784374 104.02601 51.159374 104.65101Q50.534374 105.26038 49.45625 105.26038Q48.721874 105.26038 48.190624 104.97913Q47.659374 104.68226 47.39375 104.15101Q47.128124 103.60413 47.128124 102.99476ZM48.784374 103.01038Q48.784374 103.72913 49.01875 104.05726Q49.159374 104.27601 49.45625 104.27601Q49.753124 104.27601 49.89375 104.05726Q50.128124 103.72913 50.128124 103.01038Q50.128124 102.29163 49.89375 101.94788Q49.753124 101.74476 49.45625 101.74476Q49.159374 101.74476 49.01875 101.94788Q48.784374 102.27601 48.784374 103.01038ZM53.33125 107.65101Q53.33125 107.04163 53.58125 106.51038Q53.846874 105.96351 54.378124 105.68226Q54.925 105.38538 55.64375 105.38538Q56.721874 105.38538 57.346874 106.01038Q57.971874 106.61976 57.971874 107.65101Q57.971874 108.66663 57.346874 109.29163Q56.721874 109.90101 55.64375 109.90101Q54.925 109.90101 54.378124 109.60413Q53.846874 109.32288 53.58125 108.79163Q53.33125 108.24476 53.33125 107.65101ZM54.971874 107.65101Q54.971874 108.38538 55.20625 108.71351Q55.346874 108.91663 55.64375 108.91663Q55.940624 108.91663 56.096874 108.71351Q56.33125 108.38538 56.33125 107.65101Q56.33125 106.93226 56.096874 106.58851Q55.940624 106.38538 55.64375 106.38538Q55.346874 106.38538 55.20625 106.60413Q54.971874 106.93226 54.971874 107.65101Z" fill-rule="nonzero"/><path stroke="#757575" stroke-width="1.0" stroke-linecap="butt" d="M18.55 96.97913L127.05 96.97913L184.38376 96.97913" fill-rule="nonzero"/><path fill="#9e9e9e" d="M186.38376 96.97913C186.38376 95.874565 185.48833 94.97913 184.38376 94.97913C183.27919 94.97913 182.38376 95.874565 182.38376 96.97913C182.38376 98.0837 183.27919 98.97913 184.38376 98.97913C185.48833 98.97913 186.38376 98.0837 186.38376 96.97913" fill-rule="nonzero"/><path fill="#b7b7b7" d="M537.34064 33.346157L543.90314 33.346157L543.90314 35.189907L540.0125 35.189907L540.0125 36.689907L543.34064 36.689907L543.34064 38.424282L540.0125 38.424282L540.0125 41.939907L537.34064 41.939907L537.34064 33.346157ZM551.73126 41.939907L549.4969 41.939907L549.4969 40.924282Q548.9969 41.549282 548.4969 41.814907Q547.9969 42.080532 547.2469 42.080532Q546.2625 42.080532 545.7 41.502407Q545.15314 40.908657 545.15314 39.674282L545.15314 35.721157L547.54376 35.721157L547.54376 39.143032Q547.54376 39.721157 547.7625 39.971157Q547.98126 40.221157 548.3719 40.221157Q548.79376 40.221157 549.0594 39.893032Q549.34064 39.564907 549.34064 38.705532L549.34064 35.721157L551.73126 35.721157L551.73126 41.939907ZM553.16876 35.721157L555.3875 35.721157L555.3875 36.736782Q555.8875 36.111782 556.3875 35.846157Q556.90314 35.580532 557.6375 35.580532Q558.6375 35.580532 559.1844 36.174282Q559.7469 36.752407 559.7469 37.986782L559.7469 41.939907L557.35626 41.939907L557.35626 38.518032Q557.35626 37.924282 557.1375 37.689907Q556.91876 37.439907 556.52814 37.439907Q556.09064 37.439907 555.825 37.768032Q555.5594 38.096157 555.5594 38.955532L555.5594 41.939907L553.16876 41.939907L553.16876 35.721157ZM567.71564 33.346157L567.71564 41.939907L565.4969 41.939907L565.4969 41.018032Q565.02814 41.611782 564.6375 41.814907Q564.1219 42.080532 563.48126 42.080532Q562.21564 42.080532 561.54376 41.111782Q560.8719 40.143032 560.8719 38.768032Q560.8719 37.221157 561.60626 36.408657Q562.35626 35.580532 563.4969 35.580532Q564.0594 35.580532 564.5125 35.768032Q564.96564 35.955532 565.3094 36.330532L565.3094 33.346157L567.71564 33.346157ZM565.325 38.814907Q565.325 38.080532 565.0125 37.721157Q564.71564 37.361782 564.23126 37.361782Q563.825 37.361782 563.54376 37.705532Q563.2625 38.049282 563.2625 38.861782Q563.2625 39.627407 563.54376 39.986782Q563.84064 40.330532 564.2625 40.330532Q564.71564 40.330532 565.0125 39.971157Q565.325 39.611782 565.325 38.814907ZM576.075 39.424282L571.29376 39.424282Q571.35626 39.986782 571.60626 40.268032Q571.95 40.674282 572.5125 40.674282Q572.85626 40.674282 573.1844 40.502407Q573.3719 40.393032 573.59064 40.111782L575.95 40.330532Q575.40314 41.268032 574.6375 41.674282Q573.8875 42.080532 572.46564 42.080532Q571.21564 42.080532 570.5125 41.736782Q569.8094 41.377407 569.34064 40.627407Q568.8719 39.861782 568.8719 38.846157Q568.8719 37.377407 569.8094 36.486782Q570.7469 35.580532 572.3875 35.580532Q573.73126 35.580532 574.4969 35.986782Q575.27814 36.377407 575.66876 37.158657Q576.075 37.924282 576.075 39.143032L576.075 39.424282ZM573.65314 38.283657Q573.59064 37.580532 573.27814 37.283657Q572.98126 36.986782 572.48126 36.986782Q571.91876 36.986782 571.575 37.439907Q571.35626 37.721157 571.3094 38.283657L573.65314 38.283657ZM577.2 35.721157L579.4344 35.721157L579.4344 36.736782Q579.7469 36.080532 580.09064 35.830532Q580.4344 35.580532 580.9344 35.580532Q581.46564 35.580532 582.09064 35.908657L581.35626 37.596157Q580.9344 37.424282 580.6844 37.424282Q580.21564 37.424282 579.96564 37.814907Q579.59064 38.361782 579.59064 39.846157L579.59064 41.939907L577.2 41.939907L577.2 35.721157Z" fill-rule="nonzero"/><path fill="#9e9e9e" d="M554.04376 57.330532L549.7 57.330532L549.7 55.377407L554.04376 50.205532L556.1219 50.205532L556.1219 55.486782L557.2 55.486782L557.2 57.330532L556.1219 57.330532L556.1219 58.939907L554.04376 58.939907L554.04376 57.330532ZM554.04376 55.486782L554.04376 52.783657L551.7469 55.486782L554.04376 55.486782ZM558.1844 56.549282L560.73126 56.549282L560.73126 58.939907L558.1844 58.939907L558.1844 56.549282ZM561.95 54.611782Q561.95 52.158657 562.825 51.189907Q563.7 50.205532 565.5125 50.205532Q566.3719 50.205532 566.9344 50.424282Q567.4969 50.627407 567.84064 50.971157Q568.2 51.314907 568.40314 51.689907Q568.60626 52.064907 568.71564 52.580532Q568.96564 53.533657 568.96564 54.580532Q568.96564 56.924282 568.16876 58.002407Q567.3875 59.080532 565.45 59.080532Q564.35626 59.080532 563.6844 58.736782Q563.02814 58.393032 562.60626 57.721157Q562.29376 57.252407 562.1219 56.439907Q561.95 55.611782 561.95 54.611782ZM564.3094 54.611782Q564.3094 56.252407 564.59064 56.861782Q564.8875 57.455532 565.4344 57.455532Q565.8094 57.455532 566.075 57.205532Q566.34064 56.939907 566.46564 56.393032Q566.59064 55.846157 566.59064 54.674282Q566.59064 52.971157 566.29376 52.377407Q566.0125 51.783657 565.4344 51.783657Q564.84064 51.783657 564.575 52.393032Q564.3094 52.986782 564.3094 54.611782ZM577.325 50.205532L578.5594 50.205532L573.60626 59.377407L572.3719 59.377407L577.325 50.205532ZM570.02814 52.455532Q570.02814 51.861782 570.29376 51.330532Q570.5594 50.783657 571.09064 50.502407Q571.6219 50.205532 572.35626 50.205532Q573.4344 50.205532 574.0594 50.830532Q574.6844 51.439907 574.6844 52.455532Q574.6844 53.486782 574.0594 54.111782Q573.4344 54.721157 572.35626 54.721157Q571.6219 54.721157 571.09064 54.439907Q570.5594 54.143032 570.29376 53.611782Q570.02814 53.064907 570.02814 52.455532ZM571.6844 52.471157Q571.6844 53.189907 571.91876 53.518032Q572.0594 53.736782 572.35626 53.736782Q572.65314 53.736782 572.79376 53.518032Q573.02814 53.189907 573.02814 52.471157Q573.02814 51.752407 572.79376 51.408657Q572.65314 51.205532 572.35626 51.205532Q572.0594 51.205532 571.91876 51.408657Q571.6844 51.736782 571.6844 52.471157ZM576.23126 57.111782Q576.23126 56.502407 576.48126 55.971157Q576.7469 55.424282 577.27814 55.143032Q577.825 54.846157 578.54376 54.846157Q579.6219 54.846157 580.2469 55.471157Q580.8719 56.080532 580.8719 57.111782Q580.8719 58.127407 580.2469 58.752407Q579.6219 59.361782 578.54376 59.361782Q577.825 59.361782 577.27814 59.064907Q576.7469 58.783657 576.48126 58.252407Q576.23126 57.705532 576.23126 57.111782ZM577.8719 57.111782Q577.8719 57.846157 578.10626 58.174282Q578.2469 58.377407 578.54376 58.377407Q578.84064 58.377407 578.9969 58.174282Q579.23126 57.846157 579.23126 57.111782Q579.23126 56.393032 578.9969 56.049282Q578.84064 55.846157 578.54376 55.846157Q578.2469 55.846157 578.10626 56.064907Q577.8719 56.393032 577.8719 57.111782Z" fill-rule="nonzero"/><path stroke="#757575" stroke-width="1.0" stroke-linecap="butt" d="M581.45 46.439907L472.95 46.439907L319.87817 62.83244" fill-rule="nonzero"/><path fill="#9e9e9e" d="M321.87817 62.83244C321.87817 61.72787 320.98273 60.83244 319.87817 60.83244C318.7736 60.83244 317.87817 61.72787 317.87817 62.83244C317.87817 63.937008 318.7736 64.83244 319.87817 64.83244C320.98273 64.83244 321.87817 63.937008 321.87817 62.83244" fill-rule="nonzero"/><path fill="#b7b7b7" d="M540.6219 71.518036L537.59064 71.518036L537.16876 72.93991L534.46564 72.93991L537.6844 64.34616L540.59064 64.34616L543.8094 72.93991L541.04376 72.93991L540.6219 71.518036ZM540.0594 69.65866L539.10626 66.580536L538.16876 69.65866L540.0594 69.65866ZM544.2625 64.34616L546.6375 64.34616L546.6375 65.97116L544.2625 65.97116L544.2625 64.34616ZM544.2625 66.72116L546.6375 66.72116L546.6375 72.93991L544.2625 72.93991L544.2625 66.72116ZM548.2 66.72116L550.4344 66.72116L550.4344 67.736786Q550.7469 67.080536 551.09064 66.830536Q551.4344 66.580536 551.9344 66.580536Q552.46564 66.580536 553.09064 66.90866L552.35626 68.59616Q551.9344 68.424286 551.6844 68.424286Q551.21564 68.424286 550.96564 68.81491Q550.59064 69.361786 550.59064 70.84616L550.59064 72.93991L548.2 72.93991L548.2 66.72116ZM559.71564 64.34616L559.71564 72.93991L557.4969 72.93991L557.4969 72.018036Q557.02814 72.611786 556.6375 72.81491Q556.1219 73.080536 555.48126 73.080536Q554.21564 73.080536 553.54376 72.111786Q552.8719 71.143036 552.8719 69.768036Q552.8719 68.22116 553.60626 67.40866Q554.35626 66.580536 555.4969 66.580536Q556.0594 66.580536 556.5125 66.768036Q556.96564 66.955536 557.3094 67.330536L557.3094 64.34616L559.71564 64.34616ZM557.325 69.81491Q557.325 69.080536 557.0125 68.72116Q556.71564 68.361786 556.23126 68.361786Q555.825 68.361786 555.54376 68.705536Q555.2625 69.049286 555.2625 69.861786Q555.2625 70.62741 555.54376 70.986786Q555.84064 71.330536 556.2625 71.330536Q556.71564 71.330536 557.0125 70.97116Q557.325 70.611786 557.325 69.81491ZM561.2 66.72116L563.4344 66.72116L563.4344 67.736786Q563.7469 67.080536 564.09064 66.830536Q564.4344 66.580536 564.9344 66.580536Q565.46564 66.580536 566.09064 66.90866L565.35626 68.59616Q564.9344 68.424286 564.6844 68.424286Q564.21564 68.424286 563.96564 68.81491Q563.59064 69.361786 563.59064 70.84616L563.59064 72.93991L561.2 72.93991L561.2 66.72116ZM565.8719 69.84616Q565.8719 68.424286 566.825 67.50241Q567.79376 66.580536 569.4344 66.580536Q571.3094 66.580536 572.2625 67.65866Q573.02814 68.53366 573.02814 69.81491Q573.02814 71.25241 572.075 72.174286Q571.1219 73.080536 569.4344 73.080536Q567.9344 73.080536 567.0125 72.31491Q565.8719 71.37741 565.8719 69.84616ZM568.2625 69.84616Q568.2625 70.674286 568.60626 71.080536Q568.95 71.47116 569.45 71.47116Q569.96564 71.47116 570.29376 71.080536Q570.6375 70.68991 570.6375 69.81491Q570.6375 69.00241 570.29376 68.611786Q569.96564 68.22116 569.46564 68.22116Q568.95 68.22116 568.60626 68.62741Q568.2625 69.018036 568.2625 69.84616ZM574.1844 75.31491L574.1844 66.72116L576.41876 66.72116L576.41876 67.643036Q576.8719 67.049286 577.2625 66.84616Q577.79376 66.580536 578.41876 66.580536Q579.66876 66.580536 580.34064 67.53366Q581.02814 68.486786 581.02814 69.893036Q581.02814 71.43991 580.27814 72.268036Q579.54376 73.080536 578.40314 73.080536Q577.85626 73.080536 577.40314 72.893036Q576.95 72.705536 576.59064 72.330536L576.59064 75.31491L574.1844 75.31491ZM576.575 69.84616Q576.575 70.580536 576.8875 70.93991Q577.2 71.299286 577.66876 71.299286Q578.09064 71.299286 578.3719 70.955536Q578.65314 70.611786 578.65314 69.799286Q578.65314 69.03366 578.35626 68.68991Q578.0594 68.330536 577.6375 68.330536Q577.1844 68.330536 576.8719 68.68991Q576.575 69.049286 576.575 69.84616Z" fill-rule="nonzero"/><path fill="#9e9e9e" d="M554.04376 88.330536L549.7 88.330536L549.7 86.37741L554.04376 81.205536L556.1219 81.205536L556.1219 86.486786L557.2 86.486786L557.2 88.330536L556.1219 88.330536L556.1219 89.93991L554.04376 89.93991L554.04376 88.330536ZM554.04376 86.486786L554.04376 83.78366L551.7469 86.486786L554.04376 86.486786ZM558.1844 87.549286L560.73126 87.549286L560.73126 89.93991L558.1844 89.93991L558.1844 87.549286ZM561.95 85.611786Q561.95 83.15866 562.825 82.18991Q563.7 81.205536 565.5125 81.205536Q566.3719 81.205536 566.9344 81.424286Q567.4969 81.62741 567.84064 81.97116Q568.2 82.31491 568.40314 82.68991Q568.60626 83.06491 568.71564 83.580536Q568.96564 84.53366 568.96564 85.580536Q568.96564 87.924286 568.16876 89.00241Q567.3875 90.080536 565.45 90.080536Q564.35626 90.080536 563.6844 89.736786Q563.02814 89.393036 562.60626 88.72116Q562.29376 88.25241 562.1219 87.43991Q561.95 86.611786 561.95 85.611786ZM564.3094 85.611786Q564.3094 87.25241 564.59064 87.861786Q564.8875 88.455536 565.4344 88.455536Q565.8094 88.455536 566.075 88.205536Q566.34064 87.93991 566.46564 87.393036Q566.59064 86.84616 566.59064 85.674286Q566.59064 83.97116 566.29376 83.37741Q566.0125 82.78366 565.4344 82.78366Q564.84064 82.78366 564.575 83.393036Q564.3094 83.986786 564.3094 85.611786ZM577.325 81.205536L578.5594 81.205536L573.60626 90.37741L572.3719 90.37741L577.325 81.205536ZM570.02814 83.455536Q570.02814 82.861786 570.29376 82.330536Q570.5594 81.78366 571.09064 81.50241Q571.6219 81.205536 572.35626 81.205536Q573.4344 81.205536 574.0594 81.830536Q574.6844 82.43991 574.6844 83.455536Q574.6844 84.486786 574.0594 85.111786Q573.4344 85.72116 572.35626 85.72116Q571.6219 85.72116 571.09064 85.43991Q570.5594 85.143036 570.29376 84.611786Q570.02814 84.06491 570.02814 83.455536ZM571.6844 83.47116Q571.6844 84.18991 571.91876 84.518036Q572.0594 84.736786 572.35626 84.736786Q572.65314 84.736786 572.79376 84.518036Q573.02814 84.18991 573.02814 83.47116Q573.02814 82.75241 572.79376 82.40866Q572.65314 82.205536 572.35626 82.205536Q572.0594 82.205536 571.91876 82.40866Q571.6844 82.736786 571.6844 83.47116ZM576.23126 88.111786Q576.23126 87.50241 576.48126 86.97116Q576.7469 86.424286 577.27814 86.143036Q577.825 85.84616 578.54376 85.84616Q579.6219 85.84616 580.2469 86.47116Q580.8719 87.080536 580.8719 88.111786Q580.8719 89.12741 580.2469 89.75241Q579.6219 90.361786 578.54376 90.361786Q577.825 90.361786 577.27814 90.06491Q576.7469 89.78366 576.48126 89.25241Q576.23126 88.705536 576.23126 88.111786ZM577.8719 88.111786Q577.8719 88.84616 578.10626 89.174286Q578.2469 89.37741 578.54376 89.37741Q578.84064 89.37741 578.9969 89.174286Q579.23126 88.84616 579.23126 88.111786Q579.23126 87.393036 578.9969 87.049286Q578.84064 86.84616 578.54376 86.84616Q578.2469 86.84616 578.10626 87.06491Q577.8719 87.393036 577.8719 88.111786Z" fill-rule="nonzero"/><path stroke="#757575" stroke-width="1.0" stroke-linecap="butt" d="M581.45 77.43991L472.95 77.43991L358.38547 69.753334" fill-rule="nonzero"/><path fill="#9e9e9e" d="M360.38547 69.753334C360.38547 68.648766 359.49005 67.753334 358.38547 67.753334C357.2809 67.753334 356.38547 68.648766 356.38547 69.753334C356.38547 70.85791 357.2809 71.753334 358.38547 71.753334C359.49005 71.753334 360.38547 70.85791 360.38547 69.753334" fill-rule="nonzero"/><path fill="#b7b7b7" d="M534.325 95.34616L538.73126 95.34616Q540.16876 95.34616 540.8875 96.03366Q541.60626 96.72116 541.60626 97.986786Q541.60626 99.28366 540.825 100.018036Q540.04376 100.75241 538.4344 100.75241L536.98126 100.75241L536.98126 103.93991L534.325 103.93991L534.325 95.34616ZM536.98126 99.018036L537.6375 99.018036Q538.40314 99.018036 538.71564 98.75241Q539.02814 98.47116 539.02814 98.06491Q539.02814 97.65866 538.7469 97.37741Q538.48126 97.09616 537.7469 97.09616L536.98126 97.09616L536.98126 99.018036ZM545.34064 99.736786L543.0594 99.486786Q543.2 98.893036 543.4344 98.549286Q543.6844 98.205536 544.1375 97.955536Q544.46564 97.768036 545.04376 97.674286Q545.6219 97.580536 546.27814 97.580536Q547.35626 97.580536 547.9969 97.705536Q548.65314 97.81491 549.09064 98.18991Q549.3875 98.455536 549.5594 98.93991Q549.7469 99.424286 549.7469 99.861786L549.7469 102.611786Q549.7469 103.049286 549.79376 103.299286Q549.85626 103.549286 550.04376 103.93991L547.8094 103.93991Q547.66876 103.705536 547.6219 103.580536Q547.59064 103.43991 547.54376 103.174286Q547.075 103.62741 546.6219 103.81491Q545.98126 104.080536 545.15314 104.080536Q544.02814 104.080536 543.45 103.56491Q542.8719 103.049286 542.8719 102.299286Q542.8719 101.580536 543.29376 101.12741Q543.71564 100.674286 544.825 100.43991Q546.16876 100.174286 546.5594 100.06491Q546.96564 99.955536 547.41876 99.78366Q547.41876 99.34616 547.23126 99.174286Q547.04376 98.986786 546.59064 98.986786Q546.0125 98.986786 545.71564 99.174286Q545.48126 99.330536 545.34064 99.736786ZM547.41876 100.986786Q546.91876 101.15866 546.3875 101.299286Q545.66876 101.486786 545.46564 101.674286Q545.2625 101.87741 545.2625 102.111786Q545.2625 102.393036 545.46564 102.580536Q545.66876 102.75241 546.04376 102.75241Q546.4344 102.75241 546.77814 102.56491Q547.1219 102.361786 547.2625 102.09616Q547.41876 101.81491 547.41876 101.361786L547.41876 100.986786ZM551.2 97.72116L553.4344 97.72116L553.4344 98.736786Q553.7469 98.080536 554.09064 97.830536Q554.4344 97.580536 554.9344 97.580536Q555.46564 97.580536 556.09064 97.90866L555.35626 99.59616Q554.9344 99.424286 554.6844 99.424286Q554.21564 99.424286 553.96564 99.81491Q553.59064 100.361786 553.59064 101.84616L553.59064 103.93991L551.2 103.93991L551.2 97.72116ZM559.04376 95.34616L559.04376 97.72116L560.35626 97.72116L560.35626 99.455536L559.04376 99.455536L559.04376 101.65866Q559.04376 102.06491 559.1219 102.18991Q559.2469 102.393036 559.52814 102.393036Q559.79376 102.393036 560.27814 102.236786L560.45 103.893036Q559.5594 104.080536 558.79376 104.080536Q557.90314 104.080536 557.48126 103.861786Q557.0594 103.62741 556.85626 103.15866Q556.65314 102.68991 556.65314 101.643036L556.65314 99.455536L555.77814 99.455536L555.77814 97.72116L556.65314 97.72116L556.65314 96.580536L559.04376 95.34616ZM561.16876 97.72116L563.3875 97.72116L563.3875 98.736786Q563.8875 98.111786 564.3875 97.84616Q564.90314 97.580536 565.6375 97.580536Q566.6375 97.580536 567.1844 98.174286Q567.7469 98.75241 567.7469 99.986786L567.7469 103.93991L565.35626 103.93991L565.35626 100.518036Q565.35626 99.924286 565.1375 99.68991Q564.91876 99.43991 564.52814 99.43991Q564.09064 99.43991 563.825 99.768036Q563.5594 100.09616 563.5594 100.955536L563.5594 103.93991L561.16876 103.93991L561.16876 97.72116ZM576.075 101.424286L571.29376 101.424286Q571.35626 101.986786 571.60626 102.268036Q571.95 102.674286 572.5125 102.674286Q572.85626 102.674286 573.1844 102.50241Q573.3719 102.393036 573.59064 102.111786L575.95 102.330536Q575.40314 103.268036 574.6375 103.674286Q573.8875 104.080536 572.46564 104.080536Q571.21564 104.080536 570.5125 103.736786Q569.8094 103.37741 569.34064 102.62741Q568.8719 101.861786 568.8719 100.84616Q568.8719 99.37741 569.8094 98.486786Q570.7469 97.580536 572.3875 97.580536Q573.73126 97.580536 574.4969 97.986786Q575.27814 98.37741 575.66876 99.15866Q576.075 99.924286 576.075 101.143036L576.075 101.424286ZM573.65314 100.28366Q573.59064 99.580536 573.27814 99.28366Q572.98126 98.986786 572.48126 98.986786Q571.91876 98.986786 571.575 99.43991Q571.35626 99.72116 571.3094 100.28366L573.65314 100.28366ZM577.2 97.72116L579.4344 97.72116L579.4344 98.736786Q579.7469 98.080536 580.09064 97.830536Q580.4344 97.580536 580.9344 97.580536Q581.46564 97.580536 582.09064 97.90866L581.35626 99.59616Q580.9344 99.424286 580.6844 99.424286Q580.21564 99.424286 579.96564 99.81491Q579.59064 100.361786 579.59064 101.84616L579.59064 103.93991L577.2 103.93991L577.2 97.72116Z" fill-rule="nonzero"/><path fill="#9e9e9e" d="M551.3719 116.31491Q550.8094 116.018036 550.5594 115.65866Q550.2 115.143036 550.2 114.486786Q550.2 113.40866 551.21564 112.736786Q552.0125 112.205536 553.3094 112.205536Q555.02814 112.205536 555.85626 112.861786Q556.6844 113.518036 556.6844 114.518036Q556.6844 115.09616 556.35626 115.59616Q556.10626 115.97116 555.575 116.31491Q556.27814 116.65866 556.6219 117.205536Q556.96564 117.75241 556.96564 118.424286Q556.96564 119.06491 556.66876 119.62741Q556.3719 120.18991 555.9344 120.50241Q555.5125 120.799286 554.8719 120.93991Q554.23126 121.080536 553.4969 121.080536Q552.1375 121.080536 551.41876 120.768036Q550.7 120.43991 550.325 119.81491Q549.95 119.18991 549.95 118.40866Q549.95 117.65866 550.29376 117.143036Q550.65314 116.611786 551.3719 116.31491ZM552.45 114.62741Q552.45 115.080536 552.73126 115.361786Q553.0125 115.62741 553.46564 115.62741Q553.8875 115.62741 554.1375 115.361786Q554.40314 115.080536 554.40314 114.65866Q554.40314 114.205536 554.1219 113.93991Q553.85626 113.65866 553.4344 113.65866Q552.9969 113.65866 552.71564 113.93991Q552.45 114.205536 552.45 114.62741ZM552.325 118.330536Q552.325 118.893036 552.66876 119.268036Q553.0125 119.62741 553.46564 119.62741Q553.8875 119.62741 554.21564 119.268036Q554.5594 118.893036 554.5594 118.330536Q554.5594 117.75241 554.21564 117.393036Q553.8875 117.03366 553.4344 117.03366Q552.98126 117.03366 552.65314 117.393036Q552.325 117.736786 552.325 118.330536ZM558.1844 118.549286L560.73126 118.549286L560.73126 120.93991L558.1844 120.93991L558.1844 118.549286ZM561.95 116.611786Q561.95 114.15866 562.825 113.18991Q563.7 112.205536 565.5125 112.205536Q566.3719 112.205536 566.9344 112.424286Q567.4969 112.62741 567.84064 112.97116Q568.2 113.31491 568.40314 113.68991Q568.60626 114.06491 568.71564 114.580536Q568.96564 115.53366 568.96564 116.580536Q568.96564 118.924286 568.16876 120.00241Q567.3875 121.080536 565.45 121.080536Q564.35626 121.080536 563.6844 120.736786Q563.02814 120.393036 562.60626 119.72116Q562.29376 119.25241 562.1219 118.43991Q561.95 117.611786 561.95 116.611786ZM564.3094 116.611786Q564.3094 118.25241 564.59064 118.861786Q564.8875 119.455536 565.4344 119.455536Q565.8094 119.455536 566.075 119.205536Q566.34064 118.93991 566.46564 118.393036Q566.59064 117.84616 566.59064 116.674286Q566.59064 114.97116 566.29376 114.37741Q566.0125 113.78366 565.4344 113.78366Q564.84064 113.78366 564.575 114.393036Q564.3094 114.986786 564.3094 116.611786ZM577.325 112.205536L578.5594 112.205536L573.60626 121.37741L572.3719 121.37741L577.325 112.205536ZM570.02814 114.455536Q570.02814 113.861786 570.29376 113.330536Q570.5594 112.78366 571.09064 112.50241Q571.6219 112.205536 572.35626 112.205536Q573.4344 112.205536 574.0594 112.830536Q574.6844 113.43991 574.6844 114.455536Q574.6844 115.486786 574.0594 116.111786Q573.4344 116.72116 572.35626 116.72116Q571.6219 116.72116 571.09064 116.43991Q570.5594 116.143036 570.29376 115.611786Q570.02814 115.06491 570.02814 114.455536ZM571.6844 114.47116Q571.6844 115.18991 571.91876 115.518036Q572.0594 115.736786 572.35626 115.736786Q572.65314 115.736786 572.79376 115.518036Q573.02814 115.18991 573.02814 114.47116Q573.02814 113.75241 572.79376 113.40866Q572.65314 113.205536 572.35626 113.205536Q572.0594 113.205536 571.91876 113.40866Q571.6844 113.736786 571.6844 114.47116ZM576.23126 119.111786Q576.23126 118.50241 576.48126 117.97116Q576.7469 117.424286 577.27814 117.143036Q577.825 116.84616 578.54376 116.84616Q579.6219 116.84616 580.2469 117.47116Q580.8719 118.080536 580.8719 119.111786Q580.8719 120.12741 580.2469 120.75241Q579.6219 121.361786 578.54376 121.361786Q577.825 121.361786 577.27814 121.06491Q576.7469 120.78366 576.48126 120.25241Q576.23126 119.705536 576.23126 119.111786ZM577.8719 119.111786Q577.8719 119.84616 578.10626 120.174286Q578.2469 120.37741 578.54376 120.37741Q578.84064 120.37741 578.9969 120.174286Q579.23126 119.84616 579.23126 119.111786Q579.23126 118.393036 578.9969 118.049286Q578.84064 117.84616 578.54376 117.84616Q578.2469 117.84616 578.10626 118.06491Q577.8719 118.393036 577.8719 119.111786Z" fill-rule="nonzero"/><path stroke="#757575" stroke-width="1.0" stroke-linecap="butt" d="M581.45 108.43991L472.95 108.43991L408.5709 92.04738" fill-rule="nonzero"/><path fill="#9e9e9e" d="M410.5709 92.04738C410.5709 90.94281 409.67545 90.04738 408.5709 90.04738C407.4663 90.04738 406.5709 90.94281 406.5709 92.04738C406.5709 93.15195 407.4663 94.04738 408.5709 94.04738C409.67545 94.04738 410.5709 93.15195 410.5709 92.04738" fill-rule="nonzero"/><path fill="#b7b7b7" d="M558.4344 270.68768L561.09064 270.68768L561.09064 279.28143L558.4344 279.28143L558.4344 270.68768ZM563.3719 270.68768L567.3094 270.68768Q568.48126 270.68768 569.1844 271.0158Q569.90314 271.3283 570.3719 271.92206Q570.84064 272.50018 571.04376 273.29706Q571.2625 274.0783 571.2625 274.9533Q571.2625 276.3283 570.95 277.09393Q570.6375 277.84393 570.075 278.35956Q569.52814 278.87518 568.8875 279.04706Q568.0125 279.28143 567.3094 279.28143L563.3719 279.28143L563.3719 270.68768ZM566.0125 272.6408L566.0125 277.3283L566.66876 277.3283Q567.4969 277.3283 567.84064 277.1408Q568.2 276.9533 568.40314 276.50018Q568.60626 276.04706 568.60626 275.0158Q568.60626 273.6408 568.15314 273.1408Q567.71564 272.6408 566.6844 272.6408L566.0125 272.6408ZM571.9969 274.98456Q571.9969 272.8908 573.16876 271.71893Q574.34064 270.54706 576.4344 270.54706Q578.575 270.54706 579.73126 271.7033Q580.90314 272.84393 580.90314 274.92206Q580.90314 276.42206 580.3875 277.3908Q579.8875 278.35956 578.91876 278.8908Q577.96564 279.42206 576.54376 279.42206Q575.09064 279.42206 574.1375 278.96893Q573.1844 278.50018 572.59064 277.50018Q571.9969 276.50018 571.9969 274.98456ZM574.65314 275.00018Q574.65314 276.29706 575.1375 276.87518Q575.6219 277.43768 576.45 277.43768Q577.3094 277.43768 577.77814 276.8908Q578.2469 276.3283 578.2469 274.8908Q578.2469 273.67206 577.7469 273.10956Q577.2625 272.54706 576.41876 272.54706Q575.6219 272.54706 575.1375 273.12518Q574.65314 273.68768 574.65314 275.00018Z" fill-rule="nonzero"/><path fill="#9e9e9e" d="M548.85626 289.62518L546.48126 289.92206Q546.3875 289.42206 546.16876 289.21893Q545.95 289.0158 545.6219 289.0158Q545.04376 289.0158 544.71564 289.59393Q544.48126 290.0158 544.3719 291.40643Q544.8094 290.96893 545.2469 290.7658Q545.7 290.54706 546.29376 290.54706Q547.45 290.54706 548.23126 291.37518Q549.02814 292.18768 549.02814 293.4533Q549.02814 294.29706 548.6219 295.00018Q548.23126 295.7033 547.5125 296.06268Q546.8094 296.42206 545.73126 296.42206Q544.45 296.42206 543.66876 295.98456Q542.8875 295.54706 542.41876 294.59393Q541.95 293.62518 541.95 292.03143Q541.95 289.7033 542.9344 288.62518Q543.91876 287.54706 545.65314 287.54706Q546.66876 287.54706 547.2625 287.78143Q547.85626 288.0158 548.2469 288.48456Q548.65314 288.93768 548.85626 289.62518ZM544.45 293.4533Q544.45 294.1408 544.79376 294.54706Q545.15314 294.93768 545.66876 294.93768Q546.1375 294.93768 546.45 294.5783Q546.77814 294.21893 546.77814 293.5158Q546.77814 292.78143 546.45 292.40643Q546.1219 292.03143 545.6219 292.03143Q545.1375 292.03143 544.79376 292.40643Q544.45 292.7658 544.45 293.4533ZM556.85626 289.62518L554.48126 289.92206Q554.3875 289.42206 554.16876 289.21893Q553.95 289.0158 553.6219 289.0158Q553.04376 289.0158 552.71564 289.59393Q552.48126 290.0158 552.3719 291.40643Q552.8094 290.96893 553.2469 290.7658Q553.7 290.54706 554.29376 290.54706Q555.45 290.54706 556.23126 291.37518Q557.02814 292.18768 557.02814 293.4533Q557.02814 294.29706 556.6219 295.00018Q556.23126 295.7033 555.5125 296.06268Q554.8094 296.42206 553.73126 296.42206Q552.45 296.42206 551.66876 295.98456Q550.8875 295.54706 550.41876 294.59393Q549.95 293.62518 549.95 292.03143Q549.95 289.7033 550.9344 288.62518Q551.91876 287.54706 553.65314 287.54706Q554.66876 287.54706 555.2625 287.78143Q555.85626 288.0158 556.2469 288.48456Q556.65314 288.93768 556.85626 289.62518ZM552.45 293.4533Q552.45 294.1408 552.79376 294.54706Q553.15314 294.93768 553.66876 294.93768Q554.1375 294.93768 554.45 294.5783Q554.77814 294.21893 554.77814 293.5158Q554.77814 292.78143 554.45 292.40643Q554.1219 292.03143 553.6219 292.03143Q553.1375 292.03143 552.79376 292.40643Q552.45 292.7658 552.45 293.4533ZM558.1844 293.8908L560.73126 293.8908L560.73126 296.28143L558.1844 296.28143L558.1844 293.8908ZM561.95 291.9533Q561.95 289.50018 562.825 288.53143Q563.7 287.54706 565.5125 287.54706Q566.3719 287.54706 566.9344 287.7658Q567.4969 287.96893 567.84064 288.31268Q568.2 288.65643 568.40314 289.03143Q568.60626 289.40643 568.71564 289.92206Q568.96564 290.87518 568.96564 291.92206Q568.96564 294.2658 568.16876 295.34393Q567.3875 296.42206 565.45 296.42206Q564.35626 296.42206 563.6844 296.0783Q563.02814 295.73456 562.60626 295.06268Q562.29376 294.59393 562.1219 293.78143Q561.95 292.9533 561.95 291.9533ZM564.3094 291.9533Q564.3094 293.59393 564.59064 294.2033Q564.8875 294.79706 565.4344 294.79706Q565.8094 294.79706 566.075 294.54706Q566.34064 294.28143 566.46564 293.73456Q566.59064 293.18768 566.59064 292.0158Q566.59064 290.31268 566.29376 289.71893Q566.0125 289.12518 565.4344 289.12518Q564.84064 289.12518 564.575 289.73456Q564.3094 290.3283 564.3094 291.9533ZM577.325 287.54706L578.5594 287.54706L573.60626 296.71893L572.3719 296.71893L577.325 287.54706ZM570.02814 289.79706Q570.02814 289.2033 570.29376 288.67206Q570.5594 288.12518 571.09064 287.84393Q571.6219 287.54706 572.35626 287.54706Q573.4344 287.54706 574.0594 288.17206Q574.6844 288.78143 574.6844 289.79706Q574.6844 290.8283 574.0594 291.4533Q573.4344 292.06268 572.35626 292.06268Q571.6219 292.06268 571.09064 291.78143Q570.5594 291.48456 570.29376 290.9533Q570.02814 290.40643 570.02814 289.79706ZM571.6844 289.81268Q571.6844 290.53143 571.91876 290.85956Q572.0594 291.0783 572.35626 291.0783Q572.65314 291.0783 572.79376 290.85956Q573.02814 290.53143 573.02814 289.81268Q573.02814 289.09393 572.79376 288.75018Q572.65314 288.54706 572.35626 288.54706Q572.0594 288.54706 571.91876 288.75018Q571.6844 289.0783 571.6844 289.81268ZM576.23126 294.4533Q576.23126 293.84393 576.48126 293.31268Q576.7469 292.7658 577.27814 292.48456Q577.825 292.18768 578.54376 292.18768Q579.6219 292.18768 580.2469 292.81268Q580.8719 293.42206 580.8719 294.4533Q580.8719 295.46893 580.2469 296.09393Q579.6219 296.7033 578.54376 296.7033Q577.825 296.7033 577.27814 296.40643Q576.7469 296.12518 576.48126 295.59393Q576.23126 295.04706 576.23126 294.4533ZM577.8719 294.4533Q577.8719 295.18768 578.10626 295.5158Q578.2469 295.71893 578.54376 295.71893Q578.84064 295.71893 578.9969 295.5158Q579.23126 295.18768 579.23126 294.4533Q579.23126 293.73456 578.9969 293.3908Q578.84064 293.18768 578.54376 293.18768Q578.2469 293.18768 578.10626 293.40643Q577.8719 293.73456 577.8719 294.4533Z" fill-rule="nonzero"/><path stroke="#757575" stroke-width="1.0" stroke-linecap="butt" d="M581.45 283.78143L472.95 283.78143L309.95874 283.78143" fill-rule="nonzero"/><path fill="#9e9e9e" d="M311.95874 283.78143C311.95874 282.67685 311.0633 281.78143 309.95874 281.78143C308.85416 281.78143 307.95874 282.67685 307.95874 283.78143C307.95874 284.886 308.85416 285.78143 309.95874 285.78143C311.0633 285.78143 311.95874 284.886 311.95874 283.78143" fill-rule="nonzero"/></svg>