<svg version="1.1" viewBox="0.0 0.0 600.0 371.0" fill="none" stroke="none" stroke-linecap="square" stroke-miterlimit="10" width="600" height="371" xmlns:xlink="http://www.w3.org/1999/xlink" xmlns="http://www.w3.org/2000/svg"><path fill="#ffffff" fill-opacity="0.0" d="M0 0L600.0 0L600.0 371.0L0 371.0L0 0Z" fill-rule="nonzero"/><path fill="#0c617d" d="M300.0 114.54625C307.0024 114.54625 313.977 115.16302 320.7594 116.38201L320.7594 141.42451C313.977 140.20552 307.0024 139.58875 300.0 139.58875Z" fill-rule="nonzero"/><path fill="#118ab2" d="M300.0 56.11375C314.0048 56.11375 327.95395 57.347282 341.51877 59.78528L320.7594 116.38201C313.977 115.16302 307.0024 114.54625 300.0 114.54625Z" fill-rule="nonzero"/><path fill="#049670" d="M320.7594 116.38201C327.5418 117.60101 334.07812 119.41256 340.2144 121.77396L340.2144 146.81647C334.07812 144.45506 327.5418 142.64351 320.7594 141.42451Z" fill-rule="nonzero"/><path fill="#06d6a0" d="M341.51877 59.78528C355.0836 62.223278 368.15628 65.84637 380.42877 70.56917L340.2144 121.77396C334.07812 119.41256 327.5418 117.60101 320.7594 116.38201Z" fill-rule="nonzero"/><path fill="#b39247" d="M340.2144 121.77396C352.53568 126.51553 362.9463 133.3589 370.4803 141.66905L370.4803 166.71155C362.9463 158.4014 352.53568 151.55803 340.2144 146.81647Z" fill-rule="nonzero"/><path fill="#ffd166" d="M380.42877 70.56917C405.07132 80.05232 425.8926 93.73906 440.96054 110.35935L370.4803 141.66905C362.9463 133.3589 352.53568 126.51553 340.2144 121.77396Z" fill-rule="nonzero"/><path fill="#617d8b" d="M259.7856 121.77396C272.10687 117.03239 285.93954 114.54625 300.0 114.54625L300.0 139.58875C285.93954 139.58875 272.10687 142.07489 259.7856 146.81647Z" fill-rule="nonzero"/><path fill="#8ab2c6" d="M219.57123 70.56917C244.21378 61.08602 271.8791 56.11375 300.0 56.11375L300.0 114.54625C285.93954 114.54625 272.10687 117.03239 259.7856 121.77396Z" fill-rule="nonzero"/><path fill="#b34b4b" d="M217.18323 165.65521C220.53223 147.09818 236.37003 130.78494 259.7856 121.77396L259.7856 146.81647C236.37003 155.82744 220.53223 172.14067 217.18323 190.69772Z" fill-rule="nonzero"/><path fill="#ff6b6b" d="M134.36646 158.33168C141.06445 121.21759 172.74005 88.591125 219.57123 70.56917L259.7856 121.77396C236.37003 130.78494 220.53223 147.09818 217.18323 165.65521Z" fill-rule="nonzero"/><path fill="#6b30b3" d="M153.7006 254.3214C140.15324 237.07161 133.05 217.70589 133.05 198.02126L133.05 172.97874C133.05 192.66339 140.15324 212.02911 153.7006 229.2789Z" fill-rule="nonzero"/><path fill="#6b30b3" d="M216.525 172.97874C216.525 170.53033 216.74484 168.08434 217.18323 165.65521L217.18323 190.69772C216.74484 193.12683 216.525 195.57283 216.525 198.02126Z" fill-rule="nonzero"/><path fill="#9945ff" d="M153.7006 229.2789C136.71571 207.65211 129.94766 182.81654 134.36646 158.33168L217.18323 165.65521C214.97383 177.89764 218.35785 190.31543 226.8503 201.12881Z" fill-rule="nonzero"/><path fill="#0ea968" d="M466.95 198.02126C466.95 251.37036 415.33743 297.94733 341.51877 311.21472C267.70013 324.48212 190.4165 301.07156 153.7006 254.3214L153.7006 229.2789C190.4165 276.02908 267.70013 299.4396 341.51877 286.1722C415.33743 272.90485 466.95 226.32787 466.95 172.97874Z" fill-rule="nonzero"/><path fill="#0ea968" d="M370.4803 141.66905C378.96796 151.03116 383.475 161.89052 383.475 172.97874L383.475 198.02126C383.475 186.93301 378.96796 176.07365 370.4803 166.71155Z" fill-rule="nonzero"/><path fill="#14f195" d="M440.96054 110.35935C473.5905 146.35097 475.6365 191.9241 446.2994 229.2789C416.9623 266.63367 360.89645 289.84375 300.0 289.84375C239.10353 289.84375 183.0377 266.63367 153.7006 229.2789L226.8503 201.12881C241.51884 219.80621 269.55176 231.41125 300.0 231.41125C330.44824 231.41125 358.48114 219.80621 373.1497 201.12881C387.81824 182.45143 386.79526 159.66486 370.4803 141.66905Z" fill-rule="nonzero"/><path fill="#b7b7b7" d="M19.471874 60.944954L19.471874 52.351204L23.89375 52.351204Q25.1125 52.351204 25.76875 52.569954Q26.425 52.77308 26.815624 53.351204Q27.221874 53.913704 27.221874 54.74183Q27.221874 55.46058 26.909374 55.976204Q26.6125 56.49183 26.08125 56.819954Q25.7375 57.02308 25.14375 57.14808Q25.6125 57.30433 25.83125 57.476204Q25.9875 57.569954 26.253124 57.92933Q26.534374 58.27308 26.628124 58.46058L27.909374 60.944954L24.909374 60.944954L23.503124 58.319954Q23.221874 57.80433 23.01875 57.663704Q22.721874 57.46058 22.3625 57.46058L22.128124 57.46058L22.128124 60.944954L19.471874 60.944954ZM22.128124 55.83558L23.253124 55.83558Q23.425 55.83558 23.95625 55.71058Q24.221874 55.663704 24.378124 55.444954Q24.55 55.226204 24.55 54.944954Q24.55 54.538704 24.284374 54.319954Q24.01875 54.08558 23.3 54.08558L22.128124 54.08558L22.128124 55.83558ZM35.175 58.42933L30.39375 58.42933Q30.45625 58.99183 30.70625 59.27308Q31.05 59.67933 31.6125 59.67933Q31.95625 59.67933 32.284374 59.507454Q32.471874 59.39808 32.690624 59.11683L35.05 59.33558Q34.503124 60.27308 33.7375 60.67933Q32.9875 61.08558 31.565624 61.08558Q30.315624 61.08558 29.6125 60.74183Q28.909374 60.382454 28.440624 59.632454Q27.971874 58.86683 27.971874 57.851204Q27.971874 56.382454 28.909374 55.49183Q29.846874 54.58558 31.4875 54.58558Q32.83125 54.58558 33.596874 54.99183Q34.378124 55.382454 34.76875 56.163704Q35.175 56.92933 35.175 58.14808L35.175 58.42933ZM32.753124 57.288704Q32.690624 56.58558 32.378124 56.288704Q32.08125 55.99183 31.58125 55.99183Q31.01875 55.99183 30.675 56.444954Q30.45625 56.726204 30.409374 57.288704L32.753124 57.288704ZM35.846874 59.226204L38.221874 58.99183Q38.3625 59.413704 38.628124 59.601204Q38.89375 59.788704 39.33125 59.788704Q39.815624 59.788704 40.08125 59.58558Q40.284374 59.42933 40.284374 59.194954Q40.284374 58.944954 40.003124 58.80433Q39.815624 58.694954 38.9875 58.55433Q37.7375 58.33558 37.253124 58.14808Q36.76875 57.96058 36.440624 57.52308Q36.1125 57.08558 36.1125 56.52308Q36.1125 55.913704 36.471874 55.476204Q36.83125 55.02308 37.45625 54.80433Q38.08125 54.58558 39.14375 54.58558Q40.253124 54.58558 40.784374 54.757454Q41.315624 54.913704 41.659374 55.27308Q42.01875 55.632454 42.253124 56.24183L39.9875 56.46058Q39.909374 56.163704 39.70625 56.02308Q39.425 55.83558 39.01875 55.83558Q38.6125 55.83558 38.425 55.99183Q38.253124 56.132454 38.253124 56.33558Q38.253124 56.55433 38.4875 56.67933Q38.721874 56.788704 39.503124 56.882454Q40.690624 57.02308 41.26875 57.27308Q41.846874 57.507454 42.159374 57.96058Q42.471874 58.39808 42.471874 58.92933Q42.471874 59.46058 42.14375 59.976204Q41.815624 60.49183 41.1125 60.788704Q40.409374 61.08558 39.20625 61.08558Q37.503124 61.08558 36.76875 60.601204Q36.05 60.11683 35.846874 59.226204ZM50.175 58.42933L45.39375 58.42933Q45.45625 58.99183 45.70625 59.27308Q46.05 59.67933 46.6125 59.67933Q46.95625 59.67933 47.284374 59.507454Q47.471874 59.39808 47.690624 59.11683L50.05 59.33558Q49.503124 60.27308 48.7375 60.67933Q47.9875 61.08558 46.565624 61.08558Q45.315624 61.08558 44.6125 60.74183Q43.909374 60.382454 43.440624 59.632454Q42.971874 58.86683 42.971874 57.851204Q42.971874 56.382454 43.909374 55.49183Q44.846874 54.58558 46.4875 54.58558Q47.83125 54.58558 48.596874 54.99183Q49.378124 55.382454 49.76875 56.163704Q50.175 56.92933 50.175 58.14808L50.175 58.42933ZM47.753124 57.288704Q47.690624 56.58558 47.378124 56.288704Q47.08125 55.99183 46.58125 55.99183Q46.01875 55.99183 45.675 56.444954Q45.45625 56.726204 45.409374 57.288704L47.753124 57.288704ZM51.3 54.726204L53.534374 54.726204L53.534374 55.74183Q53.846874 55.08558 54.190624 54.83558Q54.534374 54.58558 55.034374 54.58558Q55.565624 54.58558 56.190624 54.913704L55.45625 56.601204Q55.034374 56.42933 54.784374 56.42933Q54.315624 56.42933 54.065624 56.819954Q53.690624 57.36683 53.690624 58.851204L53.690624 60.944954L51.3 60.944954L51.3 54.726204ZM55.565624 54.726204L58.05 54.726204L59.253124 58.663704L60.503124 54.726204L62.909374 54.726204L60.26875 60.944954L58.159374 60.944954L55.565624 54.726204ZM70.175 58.42933L65.39375 58.42933Q65.45625 58.99183 65.70625 59.27308Q66.05 59.67933 66.6125 59.67933Q66.95625 59.67933 67.28438 59.507454Q67.47188 59.39808 67.69063 59.11683L70.05 59.33558Q69.50313 60.27308 68.7375 60.67933Q67.9875 61.08558 66.56563 61.08558Q65.31563 61.08558 64.6125 60.74183Q63.909374 60.382454 63.440624 59.632454Q62.971874 58.86683 62.971874 57.851204Q62.971874 56.382454 63.909374 55.49183Q64.84688 54.58558 66.4875 54.58558Q67.83125 54.58558 68.59688 54.99183Q69.37813 55.382454 69.76875 56.163704Q70.175 56.92933 70.175 58.14808L70.175 58.42933ZM67.75313 57.288704Q67.69063 56.58558 67.37813 56.288704Q67.08125 55.99183 66.58125 55.99183Q66.01875 55.99183 65.675 56.444954Q65.45625 56.726204 65.40938 57.288704L67.75313 57.288704Z" fill-rule="nonzero"/><path fill="#9e9e9e" d="M20.471874 73.319954Q19.909374 73.02308 19.659374 72.663704Q19.3 72.14808 19.3 71.49183Q19.3 70.413704 20.315624 69.74183Q21.1125 69.21058 22.409374 69.21058Q24.128124 69.21058 24.95625 69.86683Q25.784374 70.52308 25.784374 71.52308Q25.784374 72.101204 25.45625 72.601204Q25.20625 72.976204 24.675 73.319954Q25.378124 73.663704 25.721874 74.21058Q26.065624 74.757454 26.065624 75.42933Q26.065624 76.069954 25.76875 76.632454Q25.471874 77.194954 25.034374 77.507454Q24.6125 77.80433 23.971874 77.944954Q23.33125 78.08558 22.596874 78.08558Q21.2375 78.08558 20.51875 77.77308Q19.8 77.444954 19.425 76.819954Q19.05 76.194954 19.05 75.413704Q19.05 74.663704 19.39375 74.14808Q19.753124 73.61683 20.471874 73.319954ZM21.55 71.632454Q21.55 72.08558 21.83125 72.36683Q22.1125 72.632454 22.565624 72.632454Q22.9875 72.632454 23.2375 72.36683Q23.503124 72.08558 23.503124 71.663704Q23.503124 71.21058 23.221874 70.944954Q22.95625 70.663704 22.534374 70.663704Q22.096874 70.663704 21.815624 70.944954Q21.55 71.21058 21.55 71.632454ZM21.425 75.33558Q21.425 75.89808 21.76875 76.27308Q22.1125 76.632454 22.565624 76.632454Q22.9875 76.632454 23.315624 76.27308Q23.659374 75.89808 23.659374 75.33558Q23.659374 74.757454 23.315624 74.39808Q22.9875 74.038704 22.534374 74.038704Q22.08125 74.038704 21.753124 74.39808Q21.425 74.74183 21.425 75.33558ZM27.284374 75.55433L29.83125 75.55433L29.83125 77.944954L27.284374 77.944954L27.284374 75.55433ZM31.05 73.61683Q31.05 71.163704 31.925 70.194954Q32.8 69.21058 34.6125 69.21058Q35.471874 69.21058 36.034374 69.42933Q36.596874 69.632454 36.940624 69.976204Q37.3 70.319954 37.503124 70.694954Q37.70625 71.069954 37.815624 71.58558Q38.065624 72.538704 38.065624 73.58558Q38.065624 75.92933 37.26875 77.007454Q36.4875 78.08558 34.55 78.08558Q33.45625 78.08558 32.784374 77.74183Q32.128124 77.39808 31.70625 76.726204Q31.39375 76.257454 31.221874 75.444954Q31.05 74.61683 31.05 73.61683ZM33.409374 73.61683Q33.409374 75.257454 33.690624 75.86683Q33.9875 76.46058 34.534374 76.46058Q34.909374 76.46058 35.175 76.21058Q35.440624 75.944954 35.565624 75.39808Q35.690624 74.851204 35.690624 73.67933Q35.690624 71.976204 35.39375 71.382454Q35.1125 70.788704 34.534374 70.788704Q33.940624 70.788704 33.675 71.39808Q33.409374 71.99183 33.409374 73.61683ZM46.425 69.21058L47.659374 69.21058L42.70625 78.382454L41.471874 78.382454L46.425 69.21058ZM39.128124 71.46058Q39.128124 70.86683 39.39375 70.33558Q39.659374 69.788704 40.190624 69.507454Q40.721874 69.21058 41.45625 69.21058Q42.534374 69.21058 43.159374 69.83558Q43.784374 70.444954 43.784374 71.46058Q43.784374 72.49183 43.159374 73.11683Q42.534374 73.726204 41.45625 73.726204Q40.721874 73.726204 40.190624 73.444954Q39.659374 73.14808 39.39375 72.61683Q39.128124 72.069954 39.128124 71.46058ZM40.784374 71.476204Q40.784374 72.194954 41.01875 72.52308Q41.159374 72.74183 41.45625 72.74183Q41.753124 72.74183 41.89375 72.52308Q42.128124 72.194954 42.128124 71.476204Q42.128124 70.757454 41.89375 70.413704Q41.753124 70.21058 41.45625 70.21058Q41.159374 70.21058 41.01875 70.413704Q40.784374 70.74183 40.784374 71.476204ZM45.33125 76.11683Q45.33125 75.507454 45.58125 74.976204Q45.846874 74.42933 46.378124 74.14808Q46.925 73.851204 47.64375 73.851204Q48.721874 73.851204 49.346874 74.476204Q49.971874 75.08558 49.971874 76.11683Q49.971874 77.132454 49.346874 77.757454Q48.721874 78.36683 47.64375 78.36683Q46.925 78.36683 46.378124 78.069954Q45.846874 77.788704 45.58125 77.257454Q45.33125 76.71058 45.33125 76.11683ZM46.971874 76.11683Q46.971874 76.851204 47.20625 77.17933Q47.346874 77.382454 47.64375 77.382454Q47.940624 77.382454 48.096874 77.17933Q48.33125 76.851204 48.33125 76.11683Q48.33125 75.39808 48.096874 75.05433Q47.940624 74.851204 47.64375 74.851204Q47.346874 74.851204 47.20625 75.069954Q46.971874 75.39808 46.971874 76.11683Z" fill-rule="nonzero"/><path stroke="#757575" stroke-width="1.0" stroke-linecap="butt" d="M18.55 65.444954L127.05 65.444954L260.55716 65.444954" fill-rule="nonzero"/><path fill="#9e9e9e" d="M262.55716 65.444954C262.55716 64.340385 261.66174 63.444954 260.55716 63.444954C259.4526 63.444954 258.55716 64.340385 258.55716 65.444954C258.55716 66.54952 259.4526 67.444954 260.55716 67.444954C261.66174 67.444954 262.55716 66.54952 262.55716 65.444954" fill-rule="nonzero"/><path fill="#b7b7b7" d="M19.425 97.48152L22.08125 97.48152L22.08125 103.9659L26.221874 103.9659L26.221874 106.07527L19.425 106.07527L19.425 97.48152ZM27.3625 97.48152L29.7375 97.48152L29.7375 99.10652L27.3625 99.10652L27.3625 97.48152ZM27.3625 99.85652L29.7375 99.85652L29.7375 106.07527L27.3625 106.07527L27.3625 99.85652ZM37.815624 108.45027L35.409374 108.45027L35.409374 105.4659Q35.065624 105.8409 34.6125 106.0284Q34.159374 106.2159 33.596874 106.2159Q32.45625 106.2159 31.70625 105.4034Q30.971874 104.57527 30.971874 103.05965Q30.971874 102.04402 31.315624 101.26277Q31.659374 100.48152 32.253124 100.10652Q32.8625 99.7159 33.58125 99.7159Q34.20625 99.7159 34.7375 99.98152Q35.128124 100.18465 35.596874 100.7784L35.596874 99.85652L37.815624 99.85652L37.815624 108.45027ZM35.425 102.98152Q35.425 102.18465 35.128124 101.82527Q34.83125 101.4659 34.3625 101.4659Q33.940624 101.4659 33.64375 101.82527Q33.3625 102.16902 33.3625 102.99715Q33.3625 103.74715 33.64375 104.0909Q33.925 104.43465 34.33125 104.43465Q34.815624 104.43465 35.1125 104.07527Q35.425 103.7159 35.425 102.98152ZM45.83125 106.07527L43.596874 106.07527L43.596874 105.05965Q43.096874 105.68465 42.596874 105.95027Q42.096874 106.2159 41.346874 106.2159Q40.3625 106.2159 39.8 105.63777Q39.253124 105.04402 39.253124 103.80965L39.253124 99.85652L41.64375 99.85652L41.64375 103.2784Q41.64375 103.85652 41.8625 104.10652Q42.08125 104.35652 42.471874 104.35652Q42.89375 104.35652 43.159374 104.0284Q43.440624 103.70027 43.440624 102.8409L43.440624 99.85652L45.83125 99.85652L45.83125 106.07527ZM47.3625 97.48152L49.7375 97.48152L49.7375 99.10652L47.3625 99.10652L47.3625 97.48152ZM47.3625 99.85652L49.7375 99.85652L49.7375 106.07527L47.3625 106.07527L47.3625 99.85652ZM57.815624 97.48152L57.815624 106.07527L55.596874 106.07527L55.596874 105.1534Q55.128124 105.74715 54.7375 105.95027Q54.221874 106.2159 53.58125 106.2159Q52.315624 106.2159 51.64375 105.24715Q50.971874 104.2784 50.971874 102.9034Q50.971874 101.35652 51.70625 100.54402Q52.45625 99.7159 53.596874 99.7159Q54.159374 99.7159 54.6125 99.9034Q55.065624 100.0909 55.409374 100.4659L55.409374 97.48152L57.815624 97.48152ZM55.425 102.95027Q55.425 102.2159 55.1125 101.85652Q54.815624 101.49715 54.33125 101.49715Q53.925 101.49715 53.64375 101.8409Q53.3625 102.18465 53.3625 102.99715Q53.3625 103.76277 53.64375 104.12215Q53.940624 104.4659 54.3625 104.4659Q54.815624 104.4659 55.1125 104.10652Q55.425 103.74715 55.425 102.95027ZM59.3625 97.48152L61.7375 97.48152L61.7375 99.10652L59.3625 99.10652L59.3625 97.48152ZM59.3625 99.85652L61.7375 99.85652L61.7375 106.07527L59.3625 106.07527L59.3625 99.85652ZM66.14375 97.48152L66.14375 99.85652L67.45625 99.85652L67.45625 101.5909L66.14375 101.5909L66.14375 103.79402Q66.14375 104.20027 66.22188 104.32527Q66.34688 104.5284 66.62813 104.5284Q66.89375 104.5284 67.37813 104.37215L67.55 106.0284Q66.65938 106.2159 65.89375 106.2159Q65.00313 106.2159 64.58125 105.99715Q64.15938 105.76277 63.95625 105.29402Q63.753124 104.82527 63.753124 103.7784L63.753124 101.5909L62.878124 101.5909L62.878124 99.85652L63.753124 99.85652L63.753124 98.7159L66.14375 97.48152ZM67.58125 99.85652L70.09688 99.85652L71.37813 103.99715L72.56563 99.85652L74.925 99.85652L72.45625 106.49715Q72.03438 107.63777 71.59688 108.04402Q70.97188 108.60652 69.70625 108.60652Q69.19063 108.60652 68.1125 108.4659L67.925 106.79402Q68.44063 106.9659 69.06563 106.9659Q69.4875 106.9659 69.75313 106.76277Q70.01875 106.57527 70.19063 106.07527L67.58125 99.85652Z" fill-rule="nonzero"/><path fill="#9e9e9e" d="M24.45625 114.3409L24.45625 123.07527L22.034374 123.07527L22.034374 117.35652Q21.45625 117.79402 20.909374 118.07527Q20.3625 118.3409 19.534374 118.5909L19.534374 116.63777Q20.753124 116.24715 21.425 115.70027Q22.096874 115.1534 22.471874 114.3409L24.45625 114.3409ZM28.003124 114.48152L33.675 114.48152L33.675 116.38777L29.83125 116.38777L29.628124 117.68465Q30.034374 117.49715 30.425 117.4034Q30.815624 117.30965 31.190624 117.30965Q32.4875 117.30965 33.284374 118.0909Q34.08125 118.85652 34.08125 120.04402Q34.08125 120.87215 33.659374 121.6534Q33.253124 122.41902 32.4875 122.82527Q31.7375 123.2159 30.565624 123.2159Q29.70625 123.2159 29.096874 123.05965Q28.503124 122.9034 28.065624 122.5909Q27.64375 122.26277 27.378124 121.85652Q27.1125 121.45027 26.940624 120.8409L29.3625 120.5909Q29.440624 121.16902 29.76875 121.4659Q30.096874 121.76277 30.534374 121.76277Q31.034374 121.76277 31.3625 121.38777Q31.690624 121.01277 31.690624 120.26277Q31.690624 119.49715 31.3625 119.13777Q31.034374 118.7784 30.4875 118.7784Q30.14375 118.7784 29.815624 118.95027Q29.58125 119.07527 29.284374 119.38777L27.253124 119.10652L28.003124 114.48152ZM35.284374 120.68465L37.83125 120.68465L37.83125 123.07527L35.284374 123.07527L35.284374 120.68465ZM39.05 118.74715Q39.05 116.29402 39.925 115.32527Q40.8 114.3409 42.6125 114.3409Q43.471874 114.3409 44.034374 114.55965Q44.596874 114.76277 44.940624 115.10652Q45.3 115.45027 45.503124 115.82527Q45.70625 116.20027 45.815624 116.7159Q46.065624 117.66902 46.065624 118.7159Q46.065624 121.05965 45.26875 122.13777Q44.4875 123.2159 42.55 123.2159Q41.45625 123.2159 40.784374 122.87215Q40.128124 122.5284 39.70625 121.85652Q39.39375 121.38777 39.221874 120.57527Q39.05 119.74715 39.05 118.74715ZM41.409374 118.74715Q41.409374 120.38777 41.690624 120.99715Q41.9875 121.5909 42.534374 121.5909Q42.909374 121.5909 43.175 121.3409Q43.440624 121.07527 43.565624 120.5284Q43.690624 119.98152 43.690624 118.80965Q43.690624 117.10652 43.39375 116.51277Q43.1125 115.91902 42.534374 115.91902Q41.940624 115.91902 41.675 116.5284Q41.409374 117.12215 41.409374 118.74715ZM54.425 114.3409L55.659374 114.3409L50.70625 123.51277L49.471874 123.51277L54.425 114.3409ZM47.128124 116.5909Q47.128124 115.99715 47.39375 115.4659Q47.659374 114.91902 48.190624 114.63777Q48.721874 114.3409 49.45625 114.3409Q50.534374 114.3409 51.159374 114.9659Q51.784374 115.57527 51.784374 116.5909Q51.784374 117.62215 51.159374 118.24715Q50.534374 118.85652 49.45625 118.85652Q48.721874 118.85652 48.190624 118.57527Q47.659374 118.2784 47.39375 117.74715Q47.128124 117.20027 47.128124 116.5909ZM48.784374 116.60652Q48.784374 117.32527 49.01875 117.6534Q49.159374 117.87215 49.45625 117.87215Q49.753124 117.87215 49.89375 117.6534Q50.128124 117.32527 50.128124 116.60652Q50.128124 115.88777 49.89375 115.54402Q49.753124 115.3409 49.45625 115.3409Q49.159374 115.3409 49.01875 115.54402Q48.784374 115.87215 48.784374 116.60652ZM53.33125 121.24715Q53.33125 120.63777 53.58125 120.10652Q53.846874 119.55965 54.378124 119.2784Q54.925 118.98152 55.64375 118.98152Q56.721874 118.98152 57.346874 119.60652Q57.971874 120.2159 57.971874 121.24715Q57.971874 122.26277 57.346874 122.88777Q56.721874 123.49715 55.64375 123.49715Q54.925 123.49715 54.378124 123.20027Q53.846874 122.91902 53.58125 122.38777Q53.33125 121.8409 53.33125 121.24715ZM54.971874 121.24715Q54.971874 121.98152 55.20625 122.30965Q55.346874 122.51277 55.64375 122.51277Q55.940624 122.51277 56.096874 122.30965Q56.33125 121.98152 56.33125 121.24715Q56.33125 120.5284 56.096874 120.18465Q55.940624 119.98152 55.64375 119.98152Q55.346874 119.98152 55.20625 120.20027Q54.971874 120.5284 54.971874 121.24715Z" fill-rule="nonzero"/><path stroke="#757575" stroke-width="1.0" stroke-linecap="butt" d="M18.55 110.57527L127.05 110.57527L168.82295 110.57527" fill-rule="nonzero"/><path fill="#9e9e9e" d="M170.82295 110.57527C170.82295 109.4707 169.92752 108.57527 168.82295 108.57527C167.71838 108.57527 166.82295 109.4707 166.82295 110.57527C166.82295 111.67984 167.71838 112.57527 168.82295 112.57527C169.92752 112.57527 170.82295 111.67984 170.82295 110.57527" fill-rule="nonzero"/><path fill="#b7b7b7" d="M19.534374 180.6884L22.190624 180.6884L22.190624 189.28215L19.534374 189.28215L19.534374 180.6884ZM24.440624 180.6884L26.925 180.6884L30.159374 185.4384L30.159374 180.6884L32.659374 180.6884L32.659374 189.28215L30.159374 189.28215L26.940624 184.5634L26.940624 189.28215L24.440624 189.28215L24.440624 180.6884ZM34.096874 184.98528Q34.096874 182.89153 35.26875 181.71965Q36.440624 180.54778 38.534374 180.54778Q40.675 180.54778 41.83125 181.70403Q43.003124 182.84465 43.003124 184.92278Q43.003124 186.42278 42.4875 187.39153Q41.9875 188.36028 41.01875 188.89153Q40.065624 189.42278 38.64375 189.42278Q37.190624 189.42278 36.2375 188.96965Q35.284374 188.5009 34.690624 187.5009Q34.096874 186.5009 34.096874 184.98528ZM36.753124 185.0009Q36.753124 186.29778 37.2375 186.8759Q37.721874 187.4384 38.55 187.4384Q39.409374 187.4384 39.878124 186.89153Q40.346874 186.32903 40.346874 184.89153Q40.346874 183.67278 39.846874 183.11028Q39.3625 182.54778 38.51875 182.54778Q37.721874 182.54778 37.2375 183.1259Q36.753124 183.6884 36.753124 185.0009Z" fill-rule="nonzero"/><path fill="#9e9e9e" d="M24.45625 197.54778L24.45625 206.28215L22.034374 206.28215L22.034374 200.5634Q21.45625 201.0009 20.909374 201.28215Q20.3625 201.54778 19.534374 201.79778L19.534374 199.84465Q20.753124 199.45403 21.425 198.90715Q22.096874 198.36028 22.471874 197.54778L24.45625 197.54778ZM27.05 201.95403Q27.05 199.5009 27.925 198.53215Q28.8 197.54778 30.6125 197.54778Q31.471874 197.54778 32.034374 197.76653Q32.596874 197.96965 32.940624 198.3134Q33.3 198.65715 33.503124 199.03215Q33.70625 199.40715 33.815624 199.92278Q34.065624 200.8759 34.065624 201.92278Q34.065624 204.26653 33.26875 205.34465Q32.4875 206.42278 30.55 206.42278Q29.45625 206.42278 28.784374 206.07903Q28.128124 205.73528 27.70625 205.0634Q27.39375 204.59465 27.221874 203.78215Q27.05 202.95403 27.05 201.95403ZM29.409374 201.95403Q29.409374 203.59465 29.690624 204.20403Q29.9875 204.79778 30.534374 204.79778Q30.909374 204.79778 31.175 204.54778Q31.440624 204.28215 31.565624 203.73528Q31.690624 203.1884 31.690624 202.01653Q31.690624 200.3134 31.39375 199.71965Q31.1125 199.1259 30.534374 199.1259Q29.940624 199.1259 29.675 199.73528Q29.409374 200.32903 29.409374 201.95403ZM35.284374 203.89153L37.83125 203.89153L37.83125 206.28215L35.284374 206.28215L35.284374 203.89153ZM39.05 201.95403Q39.05 199.5009 39.925 198.53215Q40.8 197.54778 42.6125 197.54778Q43.471874 197.54778 44.034374 197.76653Q44.596874 197.96965 44.940624 198.3134Q45.3 198.65715 45.503124 199.03215Q45.70625 199.40715 45.815624 199.92278Q46.065624 200.8759 46.065624 201.92278Q46.065624 204.26653 45.26875 205.34465Q44.4875 206.42278 42.55 206.42278Q41.45625 206.42278 40.784374 206.07903Q40.128124 205.73528 39.70625 205.0634Q39.39375 204.59465 39.221874 203.78215Q39.05 202.95403 39.05 201.95403ZM41.409374 201.95403Q41.409374 203.59465 41.690624 204.20403Q41.9875 204.79778 42.534374 204.79778Q42.909374 204.79778 43.175 204.54778Q43.440624 204.28215 43.565624 203.73528Q43.690624 203.1884 43.690624 202.01653Q43.690624 200.3134 43.39375 199.71965Q43.1125 199.1259 42.534374 199.1259Q41.940624 199.1259 41.675 199.73528Q41.409374 200.32903 41.409374 201.95403ZM54.425 197.54778L55.659374 197.54778L50.70625 206.71965L49.471874 206.71965L54.425 197.54778ZM47.128124 199.79778Q47.128124 199.20403 47.39375 198.67278Q47.659374 198.1259 48.190624 197.84465Q48.721874 197.54778 49.45625 197.54778Q50.534374 197.54778 51.159374 198.17278Q51.784374 198.78215 51.784374 199.79778Q51.784374 200.82903 51.159374 201.45403Q50.534374 202.0634 49.45625 202.0634Q48.721874 202.0634 48.190624 201.78215Q47.659374 201.48528 47.39375 200.95403Q47.128124 200.40715 47.128124 199.79778ZM48.784374 199.8134Q48.784374 200.53215 49.01875 200.86028Q49.159374 201.07903 49.45625 201.07903Q49.753124 201.07903 49.89375 200.86028Q50.128124 200.53215 50.128124 199.8134Q50.128124 199.09465 49.89375 198.7509Q49.753124 198.54778 49.45625 198.54778Q49.159374 198.54778 49.01875 198.7509Q48.784374 199.07903 48.784374 199.8134ZM53.33125 204.45403Q53.33125 203.84465 53.58125 203.3134Q53.846874 202.76653 54.378124 202.48528Q54.925 202.1884 55.64375 202.1884Q56.721874 202.1884 57.346874 202.8134Q57.971874 203.42278 57.971874 204.45403Q57.971874 205.46965 57.346874 206.09465Q56.721874 206.70403 55.64375 206.70403Q54.925 206.70403 54.378124 206.40715Q53.846874 206.1259 53.58125 205.59465Q53.33125 205.04778 53.33125 204.45403ZM54.971874 204.45403Q54.971874 205.1884 55.20625 205.51653Q55.346874 205.71965 55.64375 205.71965Q55.940624 205.71965 56.096874 205.51653Q56.33125 205.1884 56.33125 204.45403Q56.33125 203.73528 56.096874 203.39153Q55.940624 203.1884 55.64375 203.1884Q55.346874 203.1884 55.20625 203.40715Q54.971874 203.73528 54.971874 204.45403Z" fill-rule="nonzero"/><path stroke="#757575" stroke-width="1.0" stroke-linecap="butt" d="M18.55 193.78215L127.05 193.78215L144.20679 193.78215" fill-rule="nonzero"/><path fill="#9e9e9e" d="M146.20679 193.78215C146.20679 192.67758 145.31136 191.78215 144.20679 191.78215C143.10222 191.78215 142.20679 192.67758 142.20679 193.78215C142.20679 194.88672 143.10222 195.78215 144.20679 195.78215C145.31136 195.78215 146.20679 194.88672 146.20679 193.78215" fill-rule="nonzero"/><path fill="#b7b7b7" d="M537.34064 33.346157L543.90314 33.346157L543.90314 35.189907L540.0125 35.189907L540.0125 36.689907L543.34064 36.689907L543.34064 38.424282L540.0125 38.424282L540.0125 41.939907L537.34064 41.939907L537.34064 33.346157ZM551.73126 41.939907L549.4969 41.939907L549.4969 40.924282Q548.9969 41.549282 548.4969 41.814907Q547.9969 42.080532 547.2469 42.080532Q546.2625 42.080532 545.7 41.502407Q545.15314 40.908657 545.15314 39.674282L545.15314 35.721157L547.54376 35.721157L547.54376 39.143032Q547.54376 39.721157 547.7625 39.971157Q547.98126 40.221157 548.3719 40.221157Q548.79376 40.221157 549.0594 39.893032Q549.34064 39.564907 549.34064 38.705532L549.34064 35.721157L551.73126 35.721157L551.73126 41.939907ZM553.16876 35.721157L555.3875 35.721157L555.3875 36.736782Q555.8875 36.111782 556.3875 35.846157Q556.90314 35.580532 557.6375 35.580532Q558.6375 35.580532 559.1844 36.174282Q559.7469 36.752407 559.7469 37.986782L559.7469 41.939907L557.35626 41.939907L557.35626 38.518032Q557.35626 37.924282 557.1375 37.689907Q556.91876 37.439907 556.52814 37.439907Q556.09064 37.439907 555.825 37.768032Q555.5594 38.096157 555.5594 38.955532L555.5594 41.939907L553.16876 41.939907L553.16876 35.721157ZM567.71564 33.346157L567.71564 41.939907L565.4969 41.939907L565.4969 41.018032Q565.02814 41.611782 564.6375 41.814907Q564.1219 42.080532 563.48126 42.080532Q562.21564 42.080532 561.54376 41.111782Q560.8719 40.143032 560.8719 38.768032Q560.8719 37.221157 561.60626 36.408657Q562.35626 35.580532 563.4969 35.580532Q564.0594 35.580532 564.5125 35.768032Q564.96564 35.955532 565.3094 36.330532L565.3094 33.346157L567.71564 33.346157ZM565.325 38.814907Q565.325 38.080532 565.0125 37.721157Q564.71564 37.361782 564.23126 37.361782Q563.825 37.361782 563.54376 37.705532Q563.2625 38.049282 563.2625 38.861782Q563.2625 39.627407 563.54376 39.986782Q563.84064 40.330532 564.2625 40.330532Q564.71564 40.330532 565.0125 39.971157Q565.325 39.611782 565.325 38.814907ZM576.075 39.424282L571.29376 39.424282Q571.35626 39.986782 571.60626 40.268032Q571.95 40.674282 572.5125 40.674282Q572.85626 40.674282 573.1844 40.502407Q573.3719 40.393032 573.59064 40.111782L575.95 40.330532Q575.40314 41.268032 574.6375 41.674282Q573.8875 42.080532 572.46564 42.080532Q571.21564 42.080532 570.5125 41.736782Q569.8094 41.377407 569.34064 40.627407Q568.8719 39.861782 568.8719 38.846157Q568.8719 37.377407 569.8094 36.486782Q570.7469 35.580532 572.3875 35.580532Q573.73126 35.580532 574.4969 35.986782Q575.27814 36.377407 575.66876 37.158657Q576.075 37.924282 576.075 39.143032L576.075 39.424282ZM573.65314 38.283657Q573.59064 37.580532 573.27814 37.283657Q572.98126 36.986782 572.48126 36.986782Q571.91876 36.986782 571.575 37.439907Q571.35626 37.721157 571.3094 38.283657L573.65314 38.283657ZM577.2 35.721157L579.4344 35.721157L579.4344 36.736782Q579.7469 36.080532 580.09064 35.830532Q580.4344 35.580532 580.9344 35.580532Q581.46564 35.580532 582.09064 35.908657L581.35626 37.596157Q580.9344 37.424282 580.6844 37.424282Q580.21564 37.424282 579.96564 37.814907Q579.59064 38.361782 579.59064 39.846157L579.59064 41.939907L577.2 41.939907L577.2 35.721157Z" fill-rule="nonzero"/><path fill="#9e9e9e" d="M554.04376 57.330532L549.7 57.330532L549.7 55.377407L554.04376 50.205532L556.1219 50.205532L556.1219 55.486782L557.2 55.486782L557.2 57.330532L556.1219 57.330532L556.1219 58.939907L554.04376 58.939907L554.04376 57.330532ZM554.04376 55.486782L554.04376 52.783657L551.7469 55.486782L554.04376 55.486782ZM558.1844 56.549282L560.73126 56.549282L560.73126 58.939907L558.1844 58.939907L558.1844 56.549282ZM561.95 54.611782Q561.95 52.158657 562.825 51.189907Q563.7 50.205532 565.5125 50.205532Q566.3719 50.205532 566.9344 50.424282Q567.4969 50.627407 567.84064 50.971157Q568.2 51.314907 568.40314 51.689907Q568.60626 52.064907 568.71564 52.580532Q568.96564 53.533657 568.96564 54.580532Q568.96564 56.924282 568.16876 58.002407Q567.3875 59.080532 565.45 59.080532Q564.35626 59.080532 563.6844 58.736782Q563.02814 58.393032 562.60626 57.721157Q562.29376 57.252407 562.1219 56.439907Q561.95 55.611782 561.95 54.611782ZM564.3094 54.611782Q564.3094 56.252407 564.59064 56.861782Q564.8875 57.455532 565.4344 57.455532Q565.8094 57.455532 566.075 57.205532Q566.34064 56.939907 566.46564 56.393032Q566.59064 55.846157 566.59064 54.674282Q566.59064 52.971157 566.29376 52.377407Q566.0125 51.783657 565.4344 51.783657Q564.84064 51.783657 564.575 52.393032Q564.3094 52.986782 564.3094 54.611782ZM577.325 50.205532L578.5594 50.205532L573.60626 59.377407L572.3719 59.377407L577.325 50.205532ZM570.02814 52.455532Q570.02814 51.861782 570.29376 51.330532Q570.5594 50.783657 571.09064 50.502407Q571.6219 50.205532 572.35626 50.205532Q573.4344 50.205532 574.0594 50.830532Q574.6844 51.439907 574.6844 52.455532Q574.6844 53.486782 574.0594 54.111782Q573.4344 54.721157 572.35626 54.721157Q571.6219 54.721157 571.09064 54.439907Q570.5594 54.143032 570.29376 53.611782Q570.02814 53.064907 570.02814 52.455532ZM571.6844 52.471157Q571.6844 53.189907 571.91876 53.518032Q572.0594 53.736782 572.35626 53.736782Q572.65314 53.736782 572.79376 53.518032Q573.02814 53.189907 573.02814 52.471157Q573.02814 51.752407 572.79376 51.408657Q572.65314 51.205532 572.35626 51.205532Q572.0594 51.205532 571.91876 51.408657Q571.6844 51.736782 571.6844 52.471157ZM576.23126 57.111782Q576.23126 56.502407 576.48126 55.971157Q576.7469 55.424282 577.27814 55.143032Q577.825 54.846157 578.54376 54.846157Q579.6219 54.846157 580.2469 55.471157Q580.8719 56.080532 580.8719 57.111782Q580.8719 58.127407 580.2469 58.752407Q579.6219 59.361782 578.54376 59.361782Q577.825 59.361782 577.27814 59.064907Q576.7469 58.783657 576.48126 58.252407Q576.23126 57.705532 576.23126 57.111782ZM577.8719 57.111782Q577.8719 57.846157 578.10626 58.174282Q578.2469 58.377407 578.54376 58.377407Q578.84064 58.377407 578.9969 58.174282Q579.23126 57.846157 579.23126 57.111782Q579.23126 56.393032 578.9969 56.049282Q578.84064 55.846157 578.54376 55.846157Q578.2469 55.846157 578.10626 56.064907Q577.8719 56.393032 577.8719 57.111782Z" fill-rule="nonzero"/><path stroke="#757575" stroke-width="1.0" stroke-linecap="butt" d="M581.45 46.439907L472.95 46.439907L319.87817 62.83244" fill-rule="nonzero"/><path fill="#9e9e9e" d="M321.87817 62.83244C321.87817 61.72787 320.98273 60.83244 319.87817 60.83244C318.7736 60.83244 317.87817 61.72787 317.87817 62.83244C317.87817 63.937008 318.7736 64.83244 319.87817 64.83244C320.98273 64.83244 321.87817 63.937008 321.87817 62.83244" fill-rule="nonzero"/><path fill="#b7b7b7" d="M540.6219 71.518036L537.59064 71.518036L537.16876 72.93991L534.46564 72.93991L537.6844 64.34616L540.59064 64.34616L543.8094 72.93991L541.04376 72.93991L540.6219 71.518036ZM540.0594 69.65866L539.10626 66.580536L538.16876 69.65866L540.0594 69.65866ZM544.2625 64.34616L546.6375 64.34616L546.6375 65.97116L544.2625 65.97116L544.2625 64.34616ZM544.2625 66.72116L546.6375 66.72116L546.6375 72.93991L544.2625 72.93991L544.2625 66.72116ZM548.2 66.72116L550.4344 66.72116L550.4344 67.736786Q550.7469 67.080536 551.09064 66.830536Q551.4344 66.580536 551.9344 66.580536Q552.46564 66.580536 553.09064 66.90866L552.35626 68.59616Q551.9344 68.424286 551.6844 68.424286Q551.21564 68.424286 550.96564 68.81491Q550.59064 69.361786 550.59064 70.84616L550.59064 72.93991L548.2 72.93991L548.2 66.72116ZM559.71564 64.34616L559.71564 72.93991L557.4969 72.93991L557.4969 72.018036Q557.02814 72.611786 556.6375 72.81491Q556.1219 73.080536 555.48126 73.080536Q554.21564 73.080536 553.54376 72.111786Q552.8719 71.143036 552.8719 69.768036Q552.8719 68.22116 553.60626 67.40866Q554.35626 66.580536 555.4969 66.580536Q556.0594 66.580536 556.5125 66.768036Q556.96564 66.955536 557.3094 67.330536L557.3094 64.34616L559.71564 64.34616ZM557.325 69.81491Q557.325 69.080536 557.0125 68.72116Q556.71564 68.361786 556.23126 68.361786Q555.825 68.361786 555.54376 68.705536Q555.2625 69.049286 555.2625 69.861786Q555.2625 70.62741 555.54376 70.986786Q555.84064 71.330536 556.2625 71.330536Q556.71564 71.330536 557.0125 70.97116Q557.325 70.611786 557.325 69.81491ZM561.2 66.72116L563.4344 66.72116L563.4344 67.736786Q563.7469 67.080536 564.09064 66.830536Q564.4344 66.580536 564.9344 66.580536Q565.46564 66.580536 566.09064 66.90866L565.35626 68.59616Q564.9344 68.424286 564.6844 68.424286Q564.21564 68.424286 563.96564 68.81491Q563.59064 69.361786 563.59064 70.84616L563.59064 72.93991L561.2 72.93991L561.2 66.72116ZM565.8719 69.84616Q565.8719 68.424286 566.825 67.50241Q567.79376 66.580536 569.4344 66.580536Q571.3094 66.580536 572.2625 67.65866Q573.02814 68.53366 573.02814 69.81491Q573.02814 71.25241 572.075 72.174286Q571.1219 73.080536 569.4344 73.080536Q567.9344 73.080536 567.0125 72.31491Q565.8719 71.37741 565.8719 69.84616ZM568.2625 69.84616Q568.2625 70.674286 568.60626 71.080536Q568.95 71.47116 569.45 71.47116Q569.96564 71.47116 570.29376 71.080536Q570.6375 70.68991 570.6375 69.81491Q570.6375 69.00241 570.29376 68.611786Q569.96564 68.22116 569.46564 68.22116Q568.95 68.22116 568.60626 68.62741Q568.2625 69.018036 568.2625 69.84616ZM574.1844 75.31491L574.1844 66.72116L576.41876 66.72116L576.41876 67.643036Q576.8719 67.049286 577.2625 66.84616Q577.79376 66.580536 578.41876 66.580536Q579.66876 66.580536 580.34064 67.53366Q581.02814 68.486786 581.02814 69.893036Q581.02814 71.43991 580.27814 72.268036Q579.54376 73.080536 578.40314 73.080536Q577.85626 73.080536 577.40314 72.893036Q576.95 72.705536 576.59064 72.330536L576.59064 75.31491L574.1844 75.31491ZM576.575 69.84616Q576.575 70.580536 576.8875 70.93991Q577.2 71.299286 577.66876 71.299286Q578.09064 71.299286 578.3719 70.955536Q578.65314 70.611786 578.65314 69.799286Q578.65314 69.03366 578.35626 68.68991Q578.0594 68.330536 577.6375 68.330536Q577.1844 68.330536 576.8719 68.68991Q576.575 69.049286 576.575 69.84616Z" fill-rule="nonzero"/><path fill="#9e9e9e" d="M554.04376 88.330536L549.7 88.330536L549.7 86.37741L554.04376 81.205536L556.1219 81.205536L556.1219 86.486786L557.2 86.486786L557.2 88.330536L556.1219 88.330536L556.1219 89.93991L554.04376 89.93991L554.04376 88.330536ZM554.04376 86.486786L554.04376 83.78366L551.7469 86.486786L554.04376 86.486786ZM558.1844 87.549286L560.73126 87.549286L560.73126 89.93991L558.1844 89.93991L558.1844 87.549286ZM561.95 85.611786Q561.95 83.15866 562.825 82.18991Q563.7 81.205536 565.5125 81.205536Q566.3719 81.205536 566.9344 81.424286Q567.4969 81.62741 567.84064 81.97116Q568.2 82.31491 568.40314 82.68991Q568.60626 83.06491 568.71564 83.580536Q568.96564 84.53366 568.96564 85.580536Q568.96564 87.924286 568.16876 89.00241Q567.3875 90.080536 565.45 90.080536Q564.35626 90.080536 563.6844 89.736786Q563.02814 89.393036 562.60626 88.72116Q562.29376 88.25241 562.1219 87.43991Q561.95 86.611786 561.95 85.611786ZM564.3094 85.611786Q564.3094 87.25241 564.59064 87.861786Q564.8875 88.455536 565.4344 88.455536Q565.8094 88.455536 566.075 88.205536Q566.34064 87.93991 566.46564 87.393036Q566.59064 86.84616 566.59064 85.674286Q566.59064 83.97116 566.29376 83.37741Q566.0125 82.78366 565.4344 82.78366Q564.84064 82.78366 564.575 83.393036Q564.3094 83.986786 564.3094 85.611786ZM577.325 81.205536L578.5594 81.205536L573.60626 90.37741L572.3719 90.37741L577.325 81.205536ZM570.02814 83.455536Q570.02814 82.861786 570.29376 82.330536Q570.5594 81.78366 571.09064 81.50241Q571.6219 81.205536 572.35626 81.205536Q573.4344 81.205536 574.0594 81.830536Q574.6844 82.43991 574.6844 83.455536Q574.6844 84.486786 574.0594 85.111786Q573.4344 85.72116 572.35626 85.72116Q571.6219 85.72116 571.09064 85.43991Q570.5594 85.143036 570.29376 84.611786Q570.02814 84.06491 570.02814 83.455536ZM571.6844 83.47116Q571.6844 84.18991 571.91876 84.518036Q572.0594 84.736786 572.35626 84.736786Q572.65314 84.736786 572.79376 84.518036Q573.02814 84.18991 573.02814 83.47116Q573.02814 82.75241 572.79376 82.40866Q572.65314 82.205536 572.35626 82.205536Q572.0594 82.205536 571.91876 82.40866Q571.6844 82.736786 571.6844 83.47116ZM576.23126 88.111786Q576.23126 87.50241 576.48126 86.97116Q576.7469 86.424286 577.27814 86.143036Q577.825 85.84616 578.54376 85.84616Q579.6219 85.84616 580.2469 86.47116Q580.8719 87.080536 580.8719 88.111786Q580.8719 89.12741 580.2469 89.75241Q579.6219 90.361786 578.54376 90.361786Q577.825 90.361786 577.27814 90.06491Q576.7469 89.78366 576.48126 89.25241Q576.23126 88.705536 576.23126 88.111786ZM577.8719 88.111786Q577.8719 88.84616 578.10626 89.174286Q578.2469 89.37741 578.54376 89.37741Q578.84064 89.37741 578.9969 89.174286Q579.23126 88.84616 579.23126 88.111786Q579.23126 87.393036 578.9969 87.049286Q578.84064 86.84616 578.54376 86.84616Q578.2469 86.84616 578.10626 87.06491Q577.8719 87.393036 577.8719 88.111786Z" fill-rule="nonzero"/><path stroke="#757575" stroke-width="1.0" stroke-linecap="butt" d="M581.45 77.43991L472.95 77.43991L358.38547 69.753334" fill-rule="nonzero"/><path fill="#9e9e9e" d="M360.38547 69.753334C360.38547 68.648766 359.49005 67.753334 358.38547 67.753334C357.2809 67.753334 356.38547 68.648766 356.38547 69.753334C356.38547 70.85791 357.2809 71.753334 358.38547 71.753334C359.49005 71.753334 360.38547 70.85791 360.38547 69.753334" fill-rule="nonzero"/><path fill="#b7b7b7" d="M534.325 95.34616L538.73126 95.34616Q540.16876 95.34616 540.8875 96.03366Q541.60626 96.72116 541.60626 97.986786Q541.60626 99.28366 540.825 100.018036Q540.04376 100.75241 538.4344 100.75241L536.98126 100.75241L536.98126 103.93991L534.325 103.93991L534.325 95.34616ZM536.98126 99.018036L537.6375 99.018036Q538.40314 99.018036 538.71564 98.75241Q539.02814 98.47116 539.02814 98.06491Q539.02814 97.65866 538.7469 97.37741Q538.48126 97.09616 537.7469 97.09616L536.98126 97.09616L536.98126 99.018036ZM545.34064 99.736786L543.0594 99.486786Q543.2 98.893036 543.4344 98.549286Q543.6844 98.205536 544.1375 97.955536Q544.46564 97.768036 545.04376 97.674286Q545.6219 97.580536 546.27814 97.580536Q547.35626 97.580536 547.9969 97.705536Q548.65314 97.81491 549.09064 98.18991Q549.3875 98.455536 549.5594 98.93991Q549.7469 99.424286 549.7469 99.861786L549.7469 102.611786Q549.7469 103.049286 549.79376 103.299286Q549.85626 103.549286 550.04376 103.93991L547.8094 103.93991Q547.66876 103.705536 547.6219 103.580536Q547.59064 103.43991 547.54376 103.174286Q547.075 103.62741 546.6219 103.81491Q545.98126 104.080536 545.15314 104.080536Q544.02814 104.080536 543.45 103.56491Q542.8719 103.049286 542.8719 102.299286Q542.8719 101.580536 543.29376 101.12741Q543.71564 100.674286 544.825 100.43991Q546.16876 100.174286 546.5594 100.06491Q546.96564 99.955536 547.41876 99.78366Q547.41876 99.34616 547.23126 99.174286Q547.04376 98.986786 546.59064 98.986786Q546.0125 98.986786 545.71564 99.174286Q545.48126 99.330536 545.34064 99.736786ZM547.41876 100.986786Q546.91876 101.15866 546.3875 101.299286Q545.66876 101.486786 545.46564 101.674286Q545.2625 101.87741 545.2625 102.111786Q545.2625 102.393036 545.46564 102.580536Q545.66876 102.75241 546.04376 102.75241Q546.4344 102.75241 546.77814 102.56491Q547.1219 102.361786 547.2625 102.09616Q547.41876 101.81491 547.41876 101.361786L547.41876 100.986786ZM551.2 97.72116L553.4344 97.72116L553.4344 98.736786Q553.7469 98.080536 554.09064 97.830536Q554.4344 97.580536 554.9344 97.580536Q555.46564 97.580536 556.09064 97.90866L555.35626 99.59616Q554.9344 99.424286 554.6844 99.424286Q554.21564 99.424286 553.96564 99.81491Q553.59064 100.361786 553.59064 101.84616L553.59064 103.93991L551.2 103.93991L551.2 97.72116ZM559.04376 95.34616L559.04376 97.72116L560.35626 97.72116L560.35626 99.455536L559.04376 99.455536L559.04376 101.65866Q559.04376 102.06491 559.1219 102.18991Q559.2469 102.393036 559.52814 102.393036Q559.79376 102.393036 560.27814 102.236786L560.45 103.893036Q559.5594 104.080536 558.79376 104.080536Q557.90314 104.080536 557.48126 103.861786Q557.0594 103.62741 556.85626 103.15866Q556.65314 102.68991 556.65314 101.643036L556.65314 99.455536L555.77814 99.455536L555.77814 97.72116L556.65314 97.72116L556.65314 96.580536L559.04376 95.34616ZM561.16876 97.72116L563.3875 97.72116L563.3875 98.736786Q563.8875 98.111786 564.3875 97.84616Q564.90314 97.580536 565.6375 97.580536Q566.6375 97.580536 567.1844 98.174286Q567.7469 98.75241 567.7469 99.986786L567.7469 103.93991L565.35626 103.93991L565.35626 100.518036Q565.35626 99.924286 565.1375 99.68991Q564.91876 99.43991 564.52814 99.43991Q564.09064 99.43991 563.825 99.768036Q563.5594 100.09616 563.5594 100.955536L563.5594 103.93991L561.16876 103.93991L561.16876 97.72116ZM576.075 101.424286L571.29376 101.424286Q571.35626 101.986786 571.60626 102.268036Q571.95 102.674286 572.5125 102.674286Q572.85626 102.674286 573.1844 102.50241Q573.3719 102.393036 573.59064 102.111786L575.95 102.330536Q575.40314 103.268036 574.6375 103.674286Q573.8875 104.080536 572.46564 104.080536Q571.21564 104.080536 570.5125 103.736786Q569.8094 103.37741 569.34064 102.62741Q568.8719 101.861786 568.8719 100.84616Q568.8719 99.37741 569.8094 98.486786Q570.7469 97.580536 572.3875 97.580536Q573.73126 97.580536 574.4969 97.986786Q575.27814 98.37741 575.66876 99.15866Q576.075 99.924286 576.075 101.143036L576.075 101.424286ZM573.65314 100.28366Q573.59064 99.580536 573.27814 99.28366Q572.98126 98.986786 572.48126 98.986786Q571.91876 98.986786 571.575 99.43991Q571.35626 99.72116 571.3094 100.28366L573.65314 100.28366ZM577.2 97.72116L579.4344 97.72116L579.4344 98.736786Q579.7469 98.080536 580.09064 97.830536Q580.4344 97.580536 580.9344 97.580536Q581.46564 97.580536 582.09064 97.90866L581.35626 99.59616Q580.9344 99.424286 580.6844 99.424286Q580.21564 99.424286 579.96564 99.81491Q579.59064 100.361786 579.59064 101.84616L579.59064 103.93991L577.2 103.93991L577.2 97.72116Z" fill-rule="nonzero"/><path fill="#9e9e9e" d="M551.3719 116.31491Q550.8094 116.018036 550.5594 115.65866Q550.2 115.143036 550.2 114.486786Q550.2 113.40866 551.21564 112.736786Q552.0125 112.205536 553.3094 112.205536Q555.02814 112.205536 555.85626 112.861786Q556.6844 113.518036 556.6844 114.518036Q556.6844 115.09616 556.35626 115.59616Q556.10626 115.97116 555.575 116.31491Q556.27814 116.65866 556.6219 117.205536Q556.96564 117.75241 556.96564 118.424286Q556.96564 119.06491 556.66876 119.62741Q556.3719 120.18991 555.9344 120.50241Q555.5125 120.799286 554.8719 120.93991Q554.23126 121.080536 553.4969 121.080536Q552.1375 121.080536 551.41876 120.768036Q550.7 120.43991 550.325 119.81491Q549.95 119.18991 549.95 118.40866Q549.95 117.65866 550.29376 117.143036Q550.65314 116.611786 551.3719 116.31491ZM552.45 114.62741Q552.45 115.080536 552.73126 115.361786Q553.0125 115.62741 553.46564 115.62741Q553.8875 115.62741 554.1375 115.361786Q554.40314 115.080536 554.40314 114.65866Q554.40314 114.205536 554.1219 113.93991Q553.85626 113.65866 553.4344 113.65866Q552.9969 113.65866 552.71564 113.93991Q552.45 114.205536 552.45 114.62741ZM552.325 118.330536Q552.325 118.893036 552.66876 119.268036Q553.0125 119.62741 553.46564 119.62741Q553.8875 119.62741 554.21564 119.268036Q554.5594 118.893036 554.5594 118.330536Q554.5594 117.75241 554.21564 117.393036Q553.8875 117.03366 553.4344 117.03366Q552.98126 117.03366 552.65314 117.393036Q552.325 117.736786 552.325 118.330536ZM558.1844 118.549286L560.73126 118.549286L560.73126 120.93991L558.1844 120.93991L558.1844 118.549286ZM561.95 116.611786Q561.95 114.15866 562.825 113.18991Q563.7 112.205536 565.5125 112.205536Q566.3719 112.205536 566.9344 112.424286Q567.4969 112.62741 567.84064 112.97116Q568.2 113.31491 568.40314 113.68991Q568.60626 114.06491 568.71564 114.580536Q568.96564 115.53366 568.96564 116.580536Q568.96564 118.924286 568.16876 120.00241Q567.3875 121.080536 565.45 121.080536Q564.35626 121.080536 563.6844 120.736786Q563.02814 120.393036 562.60626 119.72116Q562.29376 119.25241 562.1219 118.43991Q561.95 117.611786 561.95 116.611786ZM564.3094 116.611786Q564.3094 118.25241 564.59064 118.861786Q564.8875 119.455536 565.4344 119.455536Q565.8094 119.455536 566.075 119.205536Q566.34064 118.93991 566.46564 118.393036Q566.59064 117.84616 566.59064 116.674286Q566.59064 114.97116 566.29376 114.37741Q566.0125 113.78366 565.4344 113.78366Q564.84064 113.78366 564.575 114.393036Q564.3094 114.986786 564.3094 116.611786ZM577.325 112.205536L578.5594 112.205536L573.60626 121.37741L572.3719 121.37741L577.325 112.205536ZM570.02814 114.455536Q570.02814 113.861786 570.29376 113.330536Q570.5594 112.78366 571.09064 112.50241Q571.6219 112.205536 572.35626 112.205536Q573.4344 112.205536 574.0594 112.830536Q574.6844 113.43991 574.6844 114.455536Q574.6844 115.486786 574.0594 116.111786Q573.4344 116.72116 572.35626 116.72116Q571.6219 116.72116 571.09064 116.43991Q570.5594 116.143036 570.29376 115.611786Q570.02814 115.06491 570.02814 114.455536ZM571.6844 114.47116Q571.6844 115.18991 571.91876 115.518036Q572.0594 115.736786 572.35626 115.736786Q572.65314 115.736786 572.79376 115.518036Q573.02814 115.18991 573.02814 114.47116Q573.02814 113.75241 572.79376 113.40866Q572.65314 113.205536 572.35626 113.205536Q572.0594 113.205536 571.91876 113.40866Q571.6844 113.736786 571.6844 114.47116ZM576.23126 119.111786Q576.23126 118.50241 576.48126 117.97116Q576.7469 117.424286 577.27814 117.143036Q577.825 116.84616 578.54376 116.84616Q579.6219 116.84616 580.2469 117.47116Q580.8719 118.080536 580.8719 119.111786Q580.8719 120.12741 580.2469 120.75241Q579.6219 121.361786 578.54376 121.361786Q577.825 121.361786 577.27814 121.06491Q576.7469 120.78366 576.48126 120.25241Q576.23126 119.705536 576.23126 119.111786ZM577.8719 119.111786Q577.8719 119.84616 578.10626 120.174286Q578.2469 120.37741 578.54376 120.37741Q578.84064 120.37741 578.9969 120.174286Q579.23126 119.84616 579.23126 119.111786Q579.23126 118.393036 578.9969 118.049286Q578.84064 117.84616 578.54376 117.84616Q578.2469 117.84616 578.10626 118.06491Q577.8719 118.393036 577.8719 119.111786Z" fill-rule="nonzero"/><path stroke="#757575" stroke-width="1.0" stroke-linecap="butt" d="M581.45 108.43991L472.95 108.43991L408.5709 92.04738" fill-rule="nonzero"/><path fill="#9e9e9e" d="M410.5709 92.04738C410.5709 90.94281 409.67545 90.04738 408.5709 90.04738C407.4663 90.04738 406.5709 90.94281 406.5709 92.04738C406.5709 93.15195 407.4663 94.04738 408.5709 94.04738C409.67545 94.04738 410.5709 93.15195 410.5709 92.04738" fill-rule="nonzero"/><path fill="#b7b7b7" d="M558.4344 255.44608L561.09064 255.44608L561.09064 264.03983L558.4344 264.03983L558.4344 255.44608ZM563.3719 255.44608L567.3094 255.44608Q568.48126 255.44608 569.1844 255.7742Q569.90314 256.0867 570.3719 256.68045Q570.84064 257.25858 571.04376 258.05545Q571.2625 258.8367 571.2625 259.7117Q571.2625 261.0867 570.95 261.85233Q570.6375 262.60233 570.075 263.11795Q569.52814 263.63358 568.8875 263.80545Q568.0125 264.03983 567.3094 264.03983L563.3719 264.03983L563.3719 255.44608ZM566.0125 257.3992L566.0125 262.0867L566.66876 262.0867Q567.4969 262.0867 567.84064 261.8992Q568.2 261.7117 568.40314 261.25858Q568.60626 260.80545 568.60626 259.7742Q568.60626 258.3992 568.15314 257.8992Q567.71564 257.3992 566.6844 257.3992L566.0125 257.3992ZM571.9969 259.74295Q571.9969 257.6492 573.16876 256.47733Q574.34064 255.30545 576.4344 255.30545Q578.575 255.30545 579.73126 256.4617Q580.90314 257.60233 580.90314 259.68045Q580.90314 261.18045 580.3875 262.1492Q579.8875 263.11795 578.91876 263.6492Q577.96564 264.18045 576.54376 264.18045Q575.09064 264.18045 574.1375 263.72733Q573.1844 263.25858 572.59064 262.25858Q571.9969 261.25858 571.9969 259.74295ZM574.65314 259.75858Q574.65314 261.05545 575.1375 261.63358Q575.6219 262.19608 576.45 262.19608Q577.3094 262.19608 577.77814 261.6492Q578.2469 261.0867 578.2469 259.6492Q578.2469 258.43045 577.7469 257.86795Q577.2625 257.30545 576.41876 257.30545Q575.6219 257.30545 575.1375 257.88358Q574.65314 258.44608 574.65314 259.75858Z" fill-rule="nonzero"/><path fill="#9e9e9e" d="M542.90314 272.44608L548.575 272.44608L548.575 274.35233L544.73126 274.35233L544.52814 275.6492Q544.9344 275.4617 545.325 275.36795Q545.71564 275.2742 546.09064 275.2742Q547.3875 275.2742 548.1844 276.05545Q548.98126 276.82108 548.98126 278.00858Q548.98126 278.8367 548.5594 279.61795Q548.15314 280.38358 547.3875 280.78983Q546.6375 281.18045 545.46564 281.18045Q544.60626 281.18045 543.9969 281.0242Q543.40314 280.86795 542.96564 280.55545Q542.54376 280.22733 542.27814 279.82108Q542.0125 279.41483 541.84064 278.80545L544.2625 278.55545Q544.34064 279.13358 544.66876 279.43045Q544.9969 279.72733 545.4344 279.72733Q545.9344 279.72733 546.2625 279.35233Q546.59064 278.97733 546.59064 278.22733Q546.59064 277.4617 546.2625 277.10233Q545.9344 276.74295 545.3875 276.74295Q545.04376 276.74295 544.71564 276.91483Q544.48126 277.03983 544.1844 277.35233L542.15314 277.07108L542.90314 272.44608ZM555.35626 272.30545L555.35626 281.03983L552.9344 281.03983L552.9344 275.32108Q552.35626 275.75858 551.8094 276.03983Q551.2625 276.30545 550.4344 276.55545L550.4344 274.60233Q551.65314 274.2117 552.325 273.66483Q552.9969 273.11795 553.3719 272.30545L555.35626 272.30545ZM558.1844 278.6492L560.73126 278.6492L560.73126 281.03983L558.1844 281.03983L558.1844 278.6492ZM561.95 276.7117Q561.95 274.25858 562.825 273.28983Q563.7 272.30545 565.5125 272.30545Q566.3719 272.30545 566.9344 272.5242Q567.4969 272.72733 567.84064 273.07108Q568.2 273.41483 568.40314 273.78983Q568.60626 274.16483 568.71564 274.68045Q568.96564 275.63358 568.96564 276.68045Q568.96564 279.0242 568.16876 280.10233Q567.3875 281.18045 565.45 281.18045Q564.35626 281.18045 563.6844 280.8367Q563.02814 280.49295 562.60626 279.82108Q562.29376 279.35233 562.1219 278.53983Q561.95 277.7117 561.95 276.7117ZM564.3094 276.7117Q564.3094 278.35233 564.59064 278.9617Q564.8875 279.55545 565.4344 279.55545Q565.8094 279.55545 566.075 279.30545Q566.34064 279.03983 566.46564 278.49295Q566.59064 277.94608 566.59064 276.7742Q566.59064 275.07108 566.29376 274.47733Q566.0125 273.88358 565.4344 273.88358Q564.84064 273.88358 564.575 274.49295Q564.3094 275.0867 564.3094 276.7117ZM577.325 272.30545L578.5594 272.30545L573.60626 281.47733L572.3719 281.47733L577.325 272.30545ZM570.02814 274.55545Q570.02814 273.9617 570.29376 273.43045Q570.5594 272.88358 571.09064 272.60233Q571.6219 272.30545 572.35626 272.30545Q573.4344 272.30545 574.0594 272.93045Q574.6844 273.53983 574.6844 274.55545Q574.6844 275.5867 574.0594 276.2117Q573.4344 276.82108 572.35626 276.82108Q571.6219 276.82108 571.09064 276.53983Q570.5594 276.24295 570.29376 275.7117Q570.02814 275.16483 570.02814 274.55545ZM571.6844 274.57108Q571.6844 275.28983 571.91876 275.61795Q572.0594 275.8367 572.35626 275.8367Q572.65314 275.8367 572.79376 275.61795Q573.02814 275.28983 573.02814 274.57108Q573.02814 273.85233 572.79376 273.50858Q572.65314 273.30545 572.35626 273.30545Q572.0594 273.30545 571.91876 273.50858Q571.6844 273.8367 571.6844 274.57108ZM576.23126 279.2117Q576.23126 278.60233 576.48126 278.07108Q576.7469 277.5242 577.27814 277.24295Q577.825 276.94608 578.54376 276.94608Q579.6219 276.94608 580.2469 277.57108Q580.8719 278.18045 580.8719 279.2117Q580.8719 280.22733 580.2469 280.85233Q579.6219 281.4617 578.54376 281.4617Q577.825 281.4617 577.27814 281.16483Q576.7469 280.88358 576.48126 280.35233Q576.23126 279.80545 576.23126 279.2117ZM577.8719 279.2117Q577.8719 279.94608 578.10626 280.2742Q578.2469 280.47733 578.54376 280.47733Q578.84064 280.47733 578.9969 280.2742Q579.23126 279.94608 579.23126 279.2117Q579.23126 278.49295 578.9969 278.1492Q578.84064 277.94608 578.54376 277.94608Q578.2469 277.94608 578.10626 278.16483Q577.8719 278.49295 577.8719 279.2117Z" fill-rule="nonzero"/><path stroke="#757575" stroke-width="1.0" stroke-linecap="butt" d="M581.45 268.53983L472.95 268.53983L380.73523 268.53983" fill-rule="nonzero"/><path fill="#9e9e9e" d="M382.73523 268.53983C382.73523 267.43527 381.8398 266.53983 380.73523 266.53983C379.63068 266.53983 378.73523 267.43527 378.73523 268.53983C378.73523 269.6444 379.63068 270.53983 380.73523 270.53983C381.8398 270.53983 382.73523 269.6444 382.73523 268.53983" fill-rule="nonzero"/></svg>