<svg version="1.1" viewBox="0.0 0.0 600.0 371.0" fill="none" stroke="none" stroke-linecap="square" stroke-miterlimit="10" width="600" height="371" xmlns:xlink="http://www.w3.org/1999/xlink" xmlns="http://www.w3.org/2000/svg"><path fill="#ffffff" fill-opacity="0.0" d="M0 0L600.0 0L600.0 371.0L0 371.0L0 0Z" fill-rule="nonzero"/><path fill="#6b30b3" d="M300.0 114.54625C307.0024 114.54625 313.977 115.16302 320.7594 116.38201L320.7594 141.42451C313.977 140.20552 307.0024 139.58875 300.0 139.58875Z" fill-rule="nonzero"/><path fill="#9945ff" d="M300.0 56.11375C314.0048 56.11375 327.95395 57.347282 341.51877 59.78528L320.7594 116.38201C313.977 115.16302 307.0024 114.54625 300.0 114.54625Z" fill-rule="nonzero"/><path fill="#b34b4b" d="M269.2708 118.64958C279.05292 115.93847 289.47906 114.54625 300.0 114.54625L300.0 139.58875C289.47906 139.58875 279.05292 140.98097 269.2708 143.6921Z" fill-rule="nonzero"/><path fill="#ff6b6b" d="M238.54161 64.32042C258.10587 58.898193 278.9581 56.11375 300.0 56.11375L300.0 114.54625C289.47906 114.54625 279.05292 115.93847 269.2708 118.64958Z" fill-rule="nonzero"/><path fill="#049670" d="M235.68141 135.73247C244.64388 128.14883 256.19772 122.27279 269.2708 118.64958L269.2708 143.6921C256.19772 147.31529 244.64388 153.19133 235.68141 160.77498Z" fill-rule="nonzero"/><path fill="#05d6a0" d="M171.36281 98.4862C189.28777 83.31892 212.39543 71.56682 238.54161 64.32042L269.2708 118.64958C256.19772 122.27279 244.64388 128.14883 235.68141 135.73247Z" fill-rule="nonzero"/><path fill="#b39247" d="M279.07562 313.96472C195.62535 306.58517 133.05 256.90073 133.05 198.02126L133.05 172.97874C133.05 231.85822 195.62535 281.5427 279.07562 288.92224Z" fill-rule="nonzero"/><path fill="#b39247" d="M216.525 172.97874C216.525 159.38127 223.29947 146.2095 235.68141 135.73247L235.68141 160.77498C223.29947 171.252 216.525 184.42378 216.525 198.02126Z" fill-rule="nonzero"/><path fill="#ffd166" d="M279.07562 288.92224C218.65933 283.5796 167.1913 255.6337 144.77382 215.99962C122.35633 176.36555 132.54594 131.33127 171.36281 98.4862L235.68141 135.73247C216.27296 152.15501 211.17816 174.67215 222.3869 194.48918C233.59566 214.30623 259.32968 228.27917 289.5378 230.95049Z" fill-rule="nonzero"/><path fill="#0ea968" d="M466.95 198.02126C466.95 231.56842 446.35474 263.49783 410.406 285.68298C374.4573 307.86813 326.62225 318.1693 279.07562 313.96472L279.07562 288.92224C326.62225 293.1268 374.4573 282.82562 410.406 260.64047C446.35474 238.45534 466.95 206.52592 466.95 172.97874Z" fill-rule="nonzero"/><path fill="#0ea968" d="M320.7594 116.38201C357.6687 123.01571 383.475 146.3042 383.475 172.97874L383.475 198.02126C383.475 171.3467 357.6687 148.05821 320.7594 141.42451Z" fill-rule="nonzero"/><path fill="#14f195" d="M341.51877 59.78528C426.88348 75.12783 480.50745 134.27632 463.99286 194.87706C447.47827 255.47781 366.51422 296.65448 279.07562 288.92224L289.5378 230.95049C333.2571 234.81662 373.73914 214.22827 381.99643 183.9279C390.25372 153.62753 363.44174 124.05329 320.7594 116.38201Z" fill-rule="nonzero"/><path fill="#b7b7b7" d="M19.471874 53.541885L19.471874 44.948135L23.89375 44.948135Q25.1125 44.948135 25.76875 45.166885Q26.425 45.37001 26.815624 45.948135Q27.221874 46.510635 27.221874 47.33876Q27.221874 48.05751 26.909374 48.573135Q26.6125 49.08876 26.08125 49.416885Q25.7375 49.62001 25.14375 49.74501Q25.6125 49.90126 25.83125 50.073135Q25.9875 50.166885 26.253124 50.52626Q26.534374 50.87001 26.628124 51.05751L27.909374 53.541885L24.909374 53.541885L23.503124 50.916885Q23.221874 50.40126 23.01875 50.260635Q22.721874 50.05751 22.3625 50.05751L22.128124 50.05751L22.128124 53.541885L19.471874 53.541885ZM22.128124 48.43251L23.253124 48.43251Q23.425 48.43251 23.95625 48.30751Q24.221874 48.260635 24.378124 48.041885Q24.55 47.823135 24.55 47.541885Q24.55 47.135635 24.284374 46.916885Q24.01875 46.68251 23.3 46.68251L22.128124 46.68251L22.128124 48.43251ZM35.175 51.02626L30.39375 51.02626Q30.45625 51.58876 30.70625 51.87001Q31.05 52.27626 31.6125 52.27626Q31.95625 52.27626 32.284374 52.104385Q32.471874 51.99501 32.690624 51.71376L35.05 51.93251Q34.503124 52.87001 33.7375 53.27626Q32.9875 53.68251 31.565624 53.68251Q30.315624 53.68251 29.6125 53.33876Q28.909374 52.979385 28.440624 52.229385Q27.971874 51.46376 27.971874 50.448135Q27.971874 48.979385 28.909374 48.08876Q29.846874 47.18251 31.4875 47.18251Q32.83125 47.18251 33.596874 47.58876Q34.378124 47.979385 34.76875 48.760635Q35.175 49.52626 35.175 50.74501L35.175 51.02626ZM32.753124 49.885635Q32.690624 49.18251 32.378124 48.885635Q32.08125 48.58876 31.58125 48.58876Q31.01875 48.58876 30.675 49.041885Q30.45625 49.323135 30.409374 49.885635L32.753124 49.885635ZM35.846874 51.823135L38.221874 51.58876Q38.3625 52.010635 38.628124 52.198135Q38.89375 52.385635 39.33125 52.385635Q39.815624 52.385635 40.08125 52.18251Q40.284374 52.02626 40.284374 51.791885Q40.284374 51.541885 40.003124 51.40126Q39.815624 51.291885 38.9875 51.15126Q37.7375 50.93251 37.253124 50.74501Q36.76875 50.55751 36.440624 50.12001Q36.1125 49.68251 36.1125 49.12001Q36.1125 48.510635 36.471874 48.073135Q36.83125 47.62001 37.45625 47.40126Q38.08125 47.18251 39.14375 47.18251Q40.253124 47.18251 40.784374 47.354385Q41.315624 47.510635 41.659374 47.87001Q42.01875 48.229385 42.253124 48.83876L39.9875 49.05751Q39.909374 48.760635 39.70625 48.62001Q39.425 48.43251 39.01875 48.43251Q38.6125 48.43251 38.425 48.58876Q38.253124 48.729385 38.253124 48.93251Q38.253124 49.15126 38.4875 49.27626Q38.721874 49.385635 39.503124 49.479385Q40.690624 49.62001 41.26875 49.87001Q41.846874 50.104385 42.159374 50.55751Q42.471874 50.99501 42.471874 51.52626Q42.471874 52.05751 42.14375 52.573135Q41.815624 53.08876 41.1125 53.385635Q40.409374 53.68251 39.20625 53.68251Q37.503124 53.68251 36.76875 53.198135Q36.05 52.71376 35.846874 51.823135ZM50.175 51.02626L45.39375 51.02626Q45.45625 51.58876 45.70625 51.87001Q46.05 52.27626 46.6125 52.27626Q46.95625 52.27626 47.284374 52.104385Q47.471874 51.99501 47.690624 51.71376L50.05 51.93251Q49.503124 52.87001 48.7375 53.27626Q47.9875 53.68251 46.565624 53.68251Q45.315624 53.68251 44.6125 53.33876Q43.909374 52.979385 43.440624 52.229385Q42.971874 51.46376 42.971874 50.448135Q42.971874 48.979385 43.909374 48.08876Q44.846874 47.18251 46.4875 47.18251Q47.83125 47.18251 48.596874 47.58876Q49.378124 47.979385 49.76875 48.760635Q50.175 49.52626 50.175 50.74501L50.175 51.02626ZM47.753124 49.885635Q47.690624 49.18251 47.378124 48.885635Q47.08125 48.58876 46.58125 48.58876Q46.01875 48.58876 45.675 49.041885Q45.45625 49.323135 45.409374 49.885635L47.753124 49.885635ZM51.3 47.323135L53.534374 47.323135L53.534374 48.33876Q53.846874 47.68251 54.190624 47.43251Q54.534374 47.18251 55.034374 47.18251Q55.565624 47.18251 56.190624 47.510635L55.45625 49.198135Q55.034374 49.02626 54.784374 49.02626Q54.315624 49.02626 54.065624 49.416885Q53.690624 49.96376 53.690624 51.448135L53.690624 53.541885L51.3 53.541885L51.3 47.323135ZM55.565624 47.323135L58.05 47.323135L59.253124 51.260635L60.503124 47.323135L62.909374 47.323135L60.26875 53.541885L58.159374 53.541885L55.565624 47.323135ZM70.175 51.02626L65.39375 51.02626Q65.45625 51.58876 65.70625 51.87001Q66.05 52.27626 66.6125 52.27626Q66.95625 52.27626 67.28438 52.104385Q67.47188 51.99501 67.69063 51.71376L70.05 51.93251Q69.50313 52.87001 68.7375 53.27626Q67.9875 53.68251 66.56563 53.68251Q65.31563 53.68251 64.6125 53.33876Q63.909374 52.979385 63.440624 52.229385Q62.971874 51.46376 62.971874 50.448135Q62.971874 48.979385 63.909374 48.08876Q64.84688 47.18251 66.4875 47.18251Q67.83125 47.18251 68.59688 47.58876Q69.37813 47.979385 69.76875 48.760635Q70.175 49.52626 70.175 50.74501L70.175 51.02626ZM67.75313 49.885635Q67.69063 49.18251 67.37813 48.885635Q67.08125 48.58876 66.58125 48.58876Q66.01875 48.58876 65.675 49.041885Q65.45625 49.323135 65.40938 49.885635L67.75313 49.885635Z" fill-rule="nonzero"/><path fill="#9e9e9e" d="M25.95625 63.885635L23.58125 64.18251Q23.4875 63.68251 23.26875 63.479385Q23.05 63.27626 22.721874 63.27626Q22.14375 63.27626 21.815624 63.854385Q21.58125 64.27626 21.471874 65.666885Q21.909374 65.229385 22.346874 65.02626Q22.8 64.80751 23.39375 64.80751Q24.55 64.80751 25.33125 65.635635Q26.128124 66.448135 26.128124 67.71376Q26.128124 68.55751 25.721874 69.260635Q25.33125 69.96376 24.6125 70.323135Q23.909374 70.68251 22.83125 70.68251Q21.55 70.68251 20.76875 70.24501Q19.9875 69.80751 19.51875 68.854385Q19.05 67.885635 19.05 66.291885Q19.05 63.96376 20.034374 62.885635Q21.01875 61.80751 22.753124 61.80751Q23.76875 61.80751 24.3625 62.041885Q24.95625 62.27626 25.346874 62.74501Q25.753124 63.198135 25.95625 63.885635ZM21.55 67.71376Q21.55 68.40126 21.89375 68.80751Q22.253124 69.198135 22.76875 69.198135Q23.2375 69.198135 23.55 68.83876Q23.878124 68.479385 23.878124 67.77626Q23.878124 67.041885 23.55 66.666885Q23.221874 66.291885 22.721874 66.291885Q22.2375 66.291885 21.89375 66.666885Q21.55 67.02626 21.55 67.71376ZM27.284374 68.15126L29.83125 68.15126L29.83125 70.541885L27.284374 70.541885L27.284374 68.15126ZM31.05 66.21376Q31.05 63.760635 31.925 62.791885Q32.8 61.80751 34.6125 61.80751Q35.471874 61.80751 36.034374 62.02626Q36.596874 62.229385 36.940624 62.573135Q37.3 62.916885 37.503124 63.291885Q37.70625 63.666885 37.815624 64.18251Q38.065624 65.135635 38.065624 66.18251Q38.065624 68.52626 37.26875 69.604385Q36.4875 70.68251 34.55 70.68251Q33.45625 70.68251 32.784374 70.33876Q32.128124 69.99501 31.70625 69.323135Q31.39375 68.854385 31.221874 68.041885Q31.05 67.21376 31.05 66.21376ZM33.409374 66.21376Q33.409374 67.854385 33.690624 68.46376Q33.9875 69.05751 34.534374 69.05751Q34.909374 69.05751 35.175 68.80751Q35.440624 68.541885 35.565624 67.99501Q35.690624 67.448135 35.690624 66.27626Q35.690624 64.573135 35.39375 63.979385Q35.1125 63.385635 34.534374 63.385635Q33.940624 63.385635 33.675 63.99501Q33.409374 64.58876 33.409374 66.21376ZM46.425 61.80751L47.659374 61.80751L42.70625 70.979385L41.471874 70.979385L46.425 61.80751ZM39.128124 64.05751Q39.128124 63.46376 39.39375 62.93251Q39.659374 62.385635 40.190624 62.104385Q40.721874 61.80751 41.45625 61.80751Q42.534374 61.80751 43.159374 62.43251Q43.784374 63.041885 43.784374 64.05751Q43.784374 65.08876 43.159374 65.71376Q42.534374 66.323135 41.45625 66.323135Q40.721874 66.323135 40.190624 66.041885Q39.659374 65.74501 39.39375 65.21376Q39.128124 64.666885 39.128124 64.05751ZM40.784374 64.073135Q40.784374 64.791885 41.01875 65.12001Q41.159374 65.33876 41.45625 65.33876Q41.753124 65.33876 41.89375 65.12001Q42.128124 64.791885 42.128124 64.073135Q42.128124 63.354385 41.89375 63.010635Q41.753124 62.80751 41.45625 62.80751Q41.159374 62.80751 41.01875 63.010635Q40.784374 63.33876 40.784374 64.073135ZM45.33125 68.71376Q45.33125 68.104385 45.58125 67.573135Q45.846874 67.02626 46.378124 66.74501Q46.925 66.448135 47.64375 66.448135Q48.721874 66.448135 49.346874 67.073135Q49.971874 67.68251 49.971874 68.71376Q49.971874 69.729385 49.346874 70.354385Q48.721874 70.96376 47.64375 70.96376Q46.925 70.96376 46.378124 70.666885Q45.846874 70.385635 45.58125 69.854385Q45.33125 69.30751 45.33125 68.71376ZM46.971874 68.71376Q46.971874 69.448135 47.20625 69.77626Q47.346874 69.979385 47.64375 69.979385Q47.940624 69.979385 48.096874 69.77626Q48.33125 69.448135 48.33125 68.71376Q48.33125 67.99501 48.096874 67.65126Q47.940624 67.448135 47.64375 67.448135Q47.346874 67.448135 47.20625 67.666885Q46.971874 67.99501 46.971874 68.71376Z" fill-rule="nonzero"/><path stroke="#757575" stroke-width="1.0" stroke-linecap="butt" d="M18.55 58.041885L127.05 58.041885L270.28085 63.9235" fill-rule="nonzero"/><path fill="#9e9e9e" d="M272.28085 63.9235C272.28085 62.81893 271.38544 61.9235 270.28085 61.9235C269.1763 61.9235 268.28085 62.81893 268.28085 63.9235C268.28085 65.02807 269.1763 65.9235 270.28085 65.9235C271.38544 65.9235 272.28085 65.02807 272.28085 63.9235" fill-rule="nonzero"/><path fill="#b7b7b7" d="M19.425 75.948135L22.08125 75.948135L22.08125 82.43251L26.221874 82.43251L26.221874 84.541885L19.425 84.541885L19.425 75.948135ZM27.3625 75.948135L29.7375 75.948135L29.7375 77.573135L27.3625 77.573135L27.3625 75.948135ZM27.3625 78.323135L29.7375 78.323135L29.7375 84.541885L27.3625 84.541885L27.3625 78.323135ZM37.815624 86.916885L35.409374 86.916885L35.409374 83.93251Q35.065624 84.30751 34.6125 84.49501Q34.159374 84.68251 33.596874 84.68251Q32.45625 84.68251 31.70625 83.87001Q30.971874 83.041885 30.971874 81.52626Q30.971874 80.510635 31.315624 79.729385Q31.659374 78.948135 32.253124 78.573135Q32.8625 78.18251 33.58125 78.18251Q34.20625 78.18251 34.7375 78.448135Q35.128124 78.65126 35.596874 79.24501L35.596874 78.323135L37.815624 78.323135L37.815624 86.916885ZM35.425 81.448135Q35.425 80.65126 35.128124 80.291885Q34.83125 79.93251 34.3625 79.93251Q33.940624 79.93251 33.64375 80.291885Q33.3625 80.635635 33.3625 81.46376Q33.3625 82.21376 33.64375 82.55751Q33.925 82.90126 34.33125 82.90126Q34.815624 82.90126 35.1125 82.541885Q35.425 82.18251 35.425 81.448135ZM45.83125 84.541885L43.596874 84.541885L43.596874 83.52626Q43.096874 84.15126 42.596874 84.416885Q42.096874 84.68251 41.346874 84.68251Q40.3625 84.68251 39.8 84.104385Q39.253124 83.510635 39.253124 82.27626L39.253124 78.323135L41.64375 78.323135L41.64375 81.74501Q41.64375 82.323135 41.8625 82.573135Q42.08125 82.823135 42.471874 82.823135Q42.89375 82.823135 43.159374 82.49501Q43.440624 82.166885 43.440624 81.30751L43.440624 78.323135L45.83125 78.323135L45.83125 84.541885ZM47.3625 75.948135L49.7375 75.948135L49.7375 77.573135L47.3625 77.573135L47.3625 75.948135ZM47.3625 78.323135L49.7375 78.323135L49.7375 84.541885L47.3625 84.541885L47.3625 78.323135ZM57.815624 75.948135L57.815624 84.541885L55.596874 84.541885L55.596874 83.62001Q55.128124 84.21376 54.7375 84.416885Q54.221874 84.68251 53.58125 84.68251Q52.315624 84.68251 51.64375 83.71376Q50.971874 82.74501 50.971874 81.37001Q50.971874 79.823135 51.70625 79.010635Q52.45625 78.18251 53.596874 78.18251Q54.159374 78.18251 54.6125 78.37001Q55.065624 78.55751 55.409374 78.93251L55.409374 75.948135L57.815624 75.948135ZM55.425 81.416885Q55.425 80.68251 55.1125 80.323135Q54.815624 79.96376 54.33125 79.96376Q53.925 79.96376 53.64375 80.30751Q53.3625 80.65126 53.3625 81.46376Q53.3625 82.229385 53.64375 82.58876Q53.940624 82.93251 54.3625 82.93251Q54.815624 82.93251 55.1125 82.573135Q55.425 82.21376 55.425 81.416885ZM59.3625 75.948135L61.7375 75.948135L61.7375 77.573135L59.3625 77.573135L59.3625 75.948135ZM59.3625 78.323135L61.7375 78.323135L61.7375 84.541885L59.3625 84.541885L59.3625 78.323135ZM66.14375 75.948135L66.14375 78.323135L67.45625 78.323135L67.45625 80.05751L66.14375 80.05751L66.14375 82.260635Q66.14375 82.666885 66.22188 82.791885Q66.34688 82.99501 66.62813 82.99501Q66.89375 82.99501 67.37813 82.83876L67.55 84.49501Q66.65938 84.68251 65.89375 84.68251Q65.00313 84.68251 64.58125 84.46376Q64.15938 84.229385 63.95625 83.760635Q63.753124 83.291885 63.753124 82.24501L63.753124 80.05751L62.878124 80.05751L62.878124 78.323135L63.753124 78.323135L63.753124 77.18251L66.14375 75.948135ZM67.58125 78.323135L70.09688 78.323135L71.37813 82.46376L72.56563 78.323135L74.925 78.323135L72.45625 84.96376Q72.03438 86.104385 71.59688 86.510635Q70.97188 87.073135 69.70625 87.073135Q69.19063 87.073135 68.1125 86.93251L67.925 85.260635Q68.44063 85.43251 69.06563 85.43251Q69.4875 85.43251 69.75313 85.229385Q70.01875 85.041885 70.19063 84.541885L67.58125 78.323135Z" fill-rule="nonzero"/><path fill="#9e9e9e" d="M20.471874 96.916885Q19.909374 96.62001 19.659374 96.260635Q19.3 95.74501 19.3 95.08876Q19.3 94.010635 20.315624 93.33876Q21.1125 92.80751 22.409374 92.80751Q24.128124 92.80751 24.95625 93.46376Q25.784374 94.12001 25.784374 95.12001Q25.784374 95.698135 25.45625 96.198135Q25.20625 96.573135 24.675 96.916885Q25.378124 97.260635 25.721874 97.80751Q26.065624 98.354385 26.065624 99.02626Q26.065624 99.666885 25.76875 100.229385Q25.471874 100.791885 25.034374 101.104385Q24.6125 101.40126 23.971874 101.541885Q23.33125 101.68251 22.596874 101.68251Q21.2375 101.68251 20.51875 101.37001Q19.8 101.041885 19.425 100.416885Q19.05 99.791885 19.05 99.010635Q19.05 98.260635 19.39375 97.74501Q19.753124 97.21376 20.471874 96.916885ZM21.55 95.229385Q21.55 95.68251 21.83125 95.96376Q22.1125 96.229385 22.565624 96.229385Q22.9875 96.229385 23.2375 95.96376Q23.503124 95.68251 23.503124 95.260635Q23.503124 94.80751 23.221874 94.541885Q22.95625 94.260635 22.534374 94.260635Q22.096874 94.260635 21.815624 94.541885Q21.55 94.80751 21.55 95.229385ZM21.425 98.93251Q21.425 99.49501 21.76875 99.87001Q22.1125 100.229385 22.565624 100.229385Q22.9875 100.229385 23.315624 99.87001Q23.659374 99.49501 23.659374 98.93251Q23.659374 98.354385 23.315624 97.99501Q22.9875 97.635635 22.534374 97.635635Q22.08125 97.635635 21.753124 97.99501Q21.425 98.33876 21.425 98.93251ZM27.284374 99.15126L29.83125 99.15126L29.83125 101.541885L27.284374 101.541885L27.284374 99.15126ZM31.05 97.21376Q31.05 94.760635 31.925 93.791885Q32.8 92.80751 34.6125 92.80751Q35.471874 92.80751 36.034374 93.02626Q36.596874 93.229385 36.940624 93.573135Q37.3 93.916885 37.503124 94.291885Q37.70625 94.666885 37.815624 95.18251Q38.065624 96.135635 38.065624 97.18251Q38.065624 99.52626 37.26875 100.604385Q36.4875 101.68251 34.55 101.68251Q33.45625 101.68251 32.784374 101.33876Q32.128124 100.99501 31.70625 100.323135Q31.39375 99.854385 31.221874 99.041885Q31.05 98.21376 31.05 97.21376ZM33.409374 97.21376Q33.409374 98.854385 33.690624 99.46376Q33.9875 100.05751 34.534374 100.05751Q34.909374 100.05751 35.175 99.80751Q35.440624 99.541885 35.565624 98.99501Q35.690624 98.448135 35.690624 97.27626Q35.690624 95.573135 35.39375 94.979385Q35.1125 94.385635 34.534374 94.385635Q33.940624 94.385635 33.675 94.99501Q33.409374 95.58876 33.409374 97.21376ZM46.425 92.80751L47.659374 92.80751L42.70625 101.979385L41.471874 101.979385L46.425 92.80751ZM39.128124 95.05751Q39.128124 94.46376 39.39375 93.93251Q39.659374 93.385635 40.190624 93.104385Q40.721874 92.80751 41.45625 92.80751Q42.534374 92.80751 43.159374 93.43251Q43.784374 94.041885 43.784374 95.05751Q43.784374 96.08876 43.159374 96.71376Q42.534374 97.323135 41.45625 97.323135Q40.721874 97.323135 40.190624 97.041885Q39.659374 96.74501 39.39375 96.21376Q39.128124 95.666885 39.128124 95.05751ZM40.784374 95.073135Q40.784374 95.791885 41.01875 96.12001Q41.159374 96.33876 41.45625 96.33876Q41.753124 96.33876 41.89375 96.12001Q42.128124 95.791885 42.128124 95.073135Q42.128124 94.354385 41.89375 94.010635Q41.753124 93.80751 41.45625 93.80751Q41.159374 93.80751 41.01875 94.010635Q40.784374 94.33876 40.784374 95.073135ZM45.33125 99.71376Q45.33125 99.104385 45.58125 98.573135Q45.846874 98.02626 46.378124 97.74501Q46.925 97.448135 47.64375 97.448135Q48.721874 97.448135 49.346874 98.073135Q49.971874 98.68251 49.971874 99.71376Q49.971874 100.729385 49.346874 101.354385Q48.721874 101.96376 47.64375 101.96376Q46.925 101.96376 46.378124 101.666885Q45.846874 101.385635 45.58125 100.854385Q45.33125 100.30751 45.33125 99.71376ZM46.971874 99.71376Q46.971874 100.448135 47.20625 100.77626Q47.346874 100.979385 47.64375 100.979385Q47.940624 100.979385 48.096874 100.77626Q48.33125 100.448135 48.33125 99.71376Q48.33125 98.99501 48.096874 98.65126Q47.940624 98.448135 47.64375 98.448135Q47.346874 98.448135 47.20625 98.666885Q46.971874 98.99501 46.971874 99.71376Z" fill-rule="nonzero"/><path stroke="#757575" stroke-width="1.0" stroke-linecap="butt" d="M18.55 89.041885L127.05 89.041885L206.77579 83.16027" fill-rule="nonzero"/><path fill="#9e9e9e" d="M208.77579 83.16027C208.77579 82.055695 207.88036 81.16027 206.77579 81.16027C205.67122 81.16027 204.77579 82.055695 204.77579 83.16027C204.77579 84.26484 205.67122 85.16027 206.77579 85.16027C207.88036 85.16027 208.77579 84.26484 208.77579 83.16027" fill-rule="nonzero"/><path fill="#b7b7b7" d="M18.83125 200.75484L26.89375 200.75484L26.89375 202.87984L24.190624 202.87984L24.190624 209.34859L21.534374 209.34859L21.534374 202.87984L18.83125 202.87984L18.83125 200.75484ZM28.3 203.12984L30.534374 203.12984L30.534374 204.14546Q30.846874 203.48921 31.190624 203.23921Q31.534374 202.98921 32.034374 202.98921Q32.565624 202.98921 33.190624 203.31734L32.45625 205.00484Q32.034374 204.83296 31.784374 204.83296Q31.315624 204.83296 31.065624 205.22359Q30.690624 205.77046 30.690624 207.25484L30.690624 209.34859L28.3 209.34859L28.3 203.12984ZM40.175 206.83296L35.39375 206.83296Q35.45625 207.39546 35.70625 207.67671Q36.05 208.08296 36.6125 208.08296Q36.95625 208.08296 37.284374 207.91109Q37.471874 207.80171 37.690624 207.52046L40.05 207.73921Q39.503124 208.67671 38.7375 209.08296Q37.9875 209.48921 36.565624 209.48921Q35.315624 209.48921 34.6125 209.14546Q33.909374 208.78609 33.440624 208.03609Q32.971874 207.27046 32.971874 206.25484Q32.971874 204.78609 33.909374 203.89546Q34.846874 202.98921 36.4875 202.98921Q37.83125 202.98921 38.596874 203.39546Q39.378124 203.78609 39.76875 204.56734Q40.175 205.33296 40.175 206.55171L40.175 206.83296ZM37.753124 205.69234Q37.690624 204.98921 37.378124 204.69234Q37.08125 204.39546 36.58125 204.39546Q36.01875 204.39546 35.675 204.84859Q35.45625 205.12984 35.409374 205.69234L37.753124 205.69234ZM43.440624 205.14546L41.159374 204.89546Q41.3 204.30171 41.534374 203.95796Q41.784374 203.61421 42.2375 203.36421Q42.565624 203.17671 43.14375 203.08296Q43.721874 202.98921 44.378124 202.98921Q45.45625 202.98921 46.096874 203.11421Q46.753124 203.22359 47.190624 203.59859Q47.4875 203.86421 47.659374 204.34859Q47.846874 204.83296 47.846874 205.27046L47.846874 208.02046Q47.846874 208.45796 47.89375 208.70796Q47.95625 208.95796 48.14375 209.34859L45.909374 209.34859Q45.76875 209.11421 45.721874 208.98921Q45.690624 208.84859 45.64375 208.58296Q45.175 209.03609 44.721874 209.22359Q44.08125 209.48921 43.253124 209.48921Q42.128124 209.48921 41.55 208.97359Q40.971874 208.45796 40.971874 207.70796Q40.971874 206.98921 41.39375 206.53609Q41.815624 206.08296 42.925 205.84859Q44.26875 205.58296 44.659374 205.47359Q45.065624 205.36421 45.51875 205.19234Q45.51875 204.75484 45.33125 204.58296Q45.14375 204.39546 44.690624 204.39546Q44.1125 204.39546 43.815624 204.58296Q43.58125 204.73921 43.440624 205.14546ZM45.51875 206.39546Q45.01875 206.56734 44.4875 206.70796Q43.76875 206.89546 43.565624 207.08296Q43.3625 207.28609 43.3625 207.52046Q43.3625 207.80171 43.565624 207.98921Q43.76875 208.16109 44.14375 208.16109Q44.534374 208.16109 44.878124 207.97359Q45.221874 207.77046 45.3625 207.50484Q45.51875 207.22359 45.51875 206.77046L45.51875 206.39546ZM48.846874 207.62984L51.221874 207.39546Q51.3625 207.81734 51.628124 208.00484Q51.89375 208.19234 52.33125 208.19234Q52.815624 208.19234 53.08125 207.98921Q53.284374 207.83296 53.284374 207.59859Q53.284374 207.34859 53.003124 207.20796Q52.815624 207.09859 51.9875 206.95796Q50.7375 206.73921 50.253124 206.55171Q49.76875 206.36421 49.440624 205.92671Q49.1125 205.48921 49.1125 204.92671Q49.1125 204.31734 49.471874 203.87984Q49.83125 203.42671 50.45625 203.20796Q51.08125 202.98921 52.14375 202.98921Q53.253124 202.98921 53.784374 203.16109Q54.315624 203.31734 54.659374 203.67671Q55.01875 204.03609 55.253124 204.64546L52.9875 204.86421Q52.909374 204.56734 52.70625 204.42671Q52.425 204.23921 52.01875 204.23921Q51.6125 204.23921 51.425 204.39546Q51.253124 204.53609 51.253124 204.73921Q51.253124 204.95796 51.4875 205.08296Q51.721874 205.19234 52.503124 205.28609Q53.690624 205.42671 54.26875 205.67671Q54.846874 205.91109 55.159374 206.36421Q55.471874 206.80171 55.471874 207.33296Q55.471874 207.86421 55.14375 208.37984Q54.815624 208.89546 54.1125 209.19234Q53.409374 209.48921 52.20625 209.48921Q50.503124 209.48921 49.76875 209.00484Q49.05 208.52046 48.846874 207.62984ZM62.83125 209.34859L60.596874 209.34859L60.596874 208.33296Q60.096874 208.95796 59.596874 209.22359Q59.096874 209.48921 58.346874 209.48921Q57.3625 209.48921 56.8 208.91109Q56.253124 208.31734 56.253124 207.08296L56.253124 203.12984L58.64375 203.12984L58.64375 206.55171Q58.64375 207.12984 58.8625 207.37984Q59.08125 207.62984 59.471874 207.62984Q59.89375 207.62984 60.159374 207.30171Q60.440624 206.97359 60.440624 206.11421L60.440624 203.12984L62.83125 203.12984L62.83125 209.34859ZM64.3 203.12984L66.53438 203.12984L66.53438 204.14546Q66.84688 203.48921 67.19063 203.23921Q67.53438 202.98921 68.03438 202.98921Q68.56563 202.98921 69.19063 203.31734L68.45625 205.00484Q68.03438 204.83296 67.78438 204.83296Q67.31563 204.83296 67.06563 205.22359Q66.69063 205.77046 66.69063 207.25484L66.69063 209.34859L64.3 209.34859L64.3 203.12984ZM68.58125 203.12984L71.09688 203.12984L72.37813 207.27046L73.56563 203.12984L75.925 203.12984L73.45625 209.77046Q73.03438 210.91109 72.59688 211.31734Q71.97188 211.87984 70.70625 211.87984Q70.19063 211.87984 69.1125 211.73921L68.925 210.06734Q69.44063 210.23921 70.06563 210.23921Q70.4875 210.23921 70.75313 210.03609Q71.01875 209.84859 71.19063 209.34859L68.58125 203.12984Z" fill-rule="nonzero"/><path fill="#9e9e9e" d="M21.3625 220.23921L19.096874 219.83296Q19.378124 218.75484 20.175 218.19234Q20.9875 217.61421 22.440624 217.61421Q24.128124 217.61421 24.878124 218.23921Q25.628124 218.86421 25.628124 219.81734Q25.628124 220.36421 25.315624 220.81734Q25.01875 221.27046 24.409374 221.61421Q24.909374 221.73921 25.159374 221.89546Q25.596874 222.16109 25.83125 222.59859Q26.065624 223.02046 26.065624 223.62984Q26.065624 224.37984 25.675 225.06734Q25.284374 225.75484 24.534374 226.12984Q23.8 226.48921 22.6125 226.48921Q21.440624 226.48921 20.753124 226.22359Q20.08125 225.94234 19.64375 225.41109Q19.20625 224.87984 18.971874 224.08296L21.3625 223.77046Q21.503124 224.48921 21.8 224.77046Q22.096874 225.03609 22.55 225.03609Q23.034374 225.03609 23.346874 224.69234Q23.659374 224.33296 23.659374 223.75484Q23.659374 223.16109 23.346874 222.83296Q23.05 222.50484 22.51875 222.50484Q22.2375 222.50484 21.753124 222.64546L21.878124 220.92671Q22.065624 220.95796 22.190624 220.95796Q22.659374 220.95796 22.971874 220.66109Q23.284374 220.36421 23.284374 219.95796Q23.284374 219.56734 23.05 219.33296Q22.815624 219.09859 22.39375 219.09859Q21.971874 219.09859 21.70625 219.34859Q21.45625 219.59859 21.3625 220.23921ZM31.14375 224.73921L26.8 224.73921L26.8 222.78609L31.14375 217.61421L33.221874 217.61421L33.221874 222.89546L34.3 222.89546L34.3 224.73921L33.221874 224.73921L33.221874 226.34859L31.14375 226.34859L31.14375 224.73921ZM31.14375 222.89546L31.14375 220.19234L28.846874 222.89546L31.14375 222.89546ZM35.284374 223.95796L37.83125 223.95796L37.83125 226.34859L35.284374 226.34859L35.284374 223.95796ZM39.05 222.02046Q39.05 219.56734 39.925 218.59859Q40.8 217.61421 42.6125 217.61421Q43.471874 217.61421 44.034374 217.83296Q44.596874 218.03609 44.940624 218.37984Q45.3 218.72359 45.503124 219.09859Q45.70625 219.47359 45.815624 219.98921Q46.065624 220.94234 46.065624 221.98921Q46.065624 224.33296 45.26875 225.41109Q44.4875 226.48921 42.55 226.48921Q41.45625 226.48921 40.784374 226.14546Q40.128124 225.80171 39.70625 225.12984Q39.39375 224.66109 39.221874 223.84859Q39.05 223.02046 39.05 222.02046ZM41.409374 222.02046Q41.409374 223.66109 41.690624 224.27046Q41.9875 224.86421 42.534374 224.86421Q42.909374 224.86421 43.175 224.61421Q43.440624 224.34859 43.565624 223.80171Q43.690624 223.25484 43.690624 222.08296Q43.690624 220.37984 43.39375 219.78609Q43.1125 219.19234 42.534374 219.19234Q41.940624 219.19234 41.675 219.80171Q41.409374 220.39546 41.409374 222.02046ZM54.425 217.61421L55.659374 217.61421L50.70625 226.78609L49.471874 226.78609L54.425 217.61421ZM47.128124 219.86421Q47.128124 219.27046 47.39375 218.73921Q47.659374 218.19234 48.190624 217.91109Q48.721874 217.61421 49.45625 217.61421Q50.534374 217.61421 51.159374 218.23921Q51.784374 218.84859 51.784374 219.86421Q51.784374 220.89546 51.159374 221.52046Q50.534374 222.12984 49.45625 222.12984Q48.721874 222.12984 48.190624 221.84859Q47.659374 221.55171 47.39375 221.02046Q47.128124 220.47359 47.128124 219.86421ZM48.784374 219.87984Q48.784374 220.59859 49.01875 220.92671Q49.159374 221.14546 49.45625 221.14546Q49.753124 221.14546 49.89375 220.92671Q50.128124 220.59859 50.128124 219.87984Q50.128124 219.16109 49.89375 218.81734Q49.753124 218.61421 49.45625 218.61421Q49.159374 218.61421 49.01875 218.81734Q48.784374 219.14546 48.784374 219.87984ZM53.33125 224.52046Q53.33125 223.91109 53.58125 223.37984Q53.846874 222.83296 54.378124 222.55171Q54.925 222.25484 55.64375 222.25484Q56.721874 222.25484 57.346874 222.87984Q57.971874 223.48921 57.971874 224.52046Q57.971874 225.53609 57.346874 226.16109Q56.721874 226.77046 55.64375 226.77046Q54.925 226.77046 54.378124 226.47359Q53.846874 226.19234 53.58125 225.66109Q53.33125 225.11421 53.33125 224.52046ZM54.971874 224.52046Q54.971874 225.25484 55.20625 225.58296Q55.346874 225.78609 55.64375 225.78609Q55.940624 225.78609 56.096874 225.58296Q56.33125 225.25484 56.33125 224.52046Q56.33125 223.80171 56.096874 223.45796Q55.940624 223.25484 55.64375 223.25484Q55.346874 223.25484 55.20625 223.47359Q54.971874 223.80171 54.971874 224.52046Z" fill-rule="nonzero"/><path stroke="#757575" stroke-width="1.0" stroke-linecap="butt" d="M18.55 213.84859L127.05 213.84859L152.53513 213.84859" fill-rule="nonzero"/><path fill="#9e9e9e" d="M154.53513 213.84859C154.53513 212.74402 153.6397 211.84859 152.53513 211.84859C151.43056 211.84859 150.53513 212.74402 150.53513 213.84859C150.53513 214.95316 151.43056 215.84859 152.53513 215.84859C153.6397 215.84859 154.53513 214.95316 154.53513 213.84859" fill-rule="nonzero"/><path fill="#b7b7b7" d="M521.325 49.73869L525.73126 49.73869Q527.16876 49.73869 527.8875 50.42619Q528.60626 51.11369 528.60626 52.379314Q528.60626 53.67619 527.825 54.410564Q527.04376 55.14494 525.4344 55.14494L523.98126 55.14494L523.98126 58.33244L521.325 58.33244L521.325 49.73869ZM523.98126 53.410564L524.6375 53.410564Q525.40314 53.410564 525.71564 53.14494Q526.02814 52.86369 526.02814 52.45744Q526.02814 52.05119 525.7469 51.76994Q525.48126 51.48869 524.7469 51.48869L523.98126 51.48869L523.98126 53.410564ZM530.2625 49.73869L532.6375 49.73869L532.6375 51.36369L530.2625 51.36369L530.2625 49.73869ZM530.2625 52.11369L532.6375 52.11369L532.6375 58.33244L530.2625 58.33244L530.2625 52.11369ZM533.71564 54.26994L537.1844 54.26994L537.1844 56.129314L533.71564 56.129314L533.71564 54.26994ZM537.8719 55.23869Q537.8719 53.816814 538.825 52.89494Q539.79376 51.973064 541.4344 51.973064Q543.3094 51.973064 544.2625 53.05119Q545.02814 53.92619 545.02814 55.20744Q545.02814 56.64494 544.075 57.566814Q543.1219 58.473064 541.4344 58.473064Q539.9344 58.473064 539.0125 57.70744Q537.8719 56.76994 537.8719 55.23869ZM540.2625 55.23869Q540.2625 56.066814 540.60626 56.473064Q540.95 56.86369 541.45 56.86369Q541.96564 56.86369 542.29376 56.473064Q542.6375 56.08244 542.6375 55.20744Q542.6375 54.39494 542.29376 54.004314Q541.96564 53.61369 541.46564 53.61369Q540.95 53.61369 540.60626 54.01994Q540.2625 54.410564 540.2625 55.23869ZM546.16876 52.11369L548.3875 52.11369L548.3875 53.129314Q548.8875 52.504314 549.3875 52.23869Q549.90314 51.973064 550.6375 51.973064Q551.6375 51.973064 552.1844 52.566814Q552.7469 53.14494 552.7469 54.379314L552.7469 58.33244L550.35626 58.33244L550.35626 54.910564Q550.35626 54.316814 550.1375 54.08244Q549.91876 53.83244 549.52814 53.83244Q549.09064 53.83244 548.825 54.160564Q548.5594 54.48869 548.5594 55.348064L548.5594 58.33244L546.16876 58.33244L546.16876 52.11369ZM561.075 55.816814L556.29376 55.816814Q556.35626 56.379314 556.60626 56.660564Q556.95 57.066814 557.5125 57.066814Q557.85626 57.066814 558.1844 56.89494Q558.3719 56.785564 558.59064 56.504314L560.95 56.723064Q560.40314 57.660564 559.6375 58.066814Q558.8875 58.473064 557.46564 58.473064Q556.21564 58.473064 555.5125 58.129314Q554.8094 57.76994 554.34064 57.01994Q553.8719 56.254314 553.8719 55.23869Q553.8719 53.76994 554.8094 52.879314Q555.7469 51.973064 557.3875 51.973064Q558.73126 51.973064 559.4969 52.379314Q560.27814 52.76994 560.66876 53.55119Q561.075 54.316814 561.075 55.535564L561.075 55.816814ZM558.65314 54.67619Q558.59064 53.973064 558.27814 53.67619Q557.98126 53.379314 557.48126 53.379314Q556.91876 53.379314 556.575 53.83244Q556.35626 54.11369 556.3094 54.67619L558.65314 54.67619ZM569.075 55.816814L564.29376 55.816814Q564.35626 56.379314 564.60626 56.660564Q564.95 57.066814 565.5125 57.066814Q565.85626 57.066814 566.1844 56.89494Q566.3719 56.785564 566.59064 56.504314L568.95 56.723064Q568.40314 57.660564 567.6375 58.066814Q566.8875 58.473064 565.46564 58.473064Q564.21564 58.473064 563.5125 58.129314Q562.8094 57.76994 562.34064 57.01994Q561.8719 56.254314 561.8719 55.23869Q561.8719 53.76994 562.8094 52.879314Q563.7469 51.973064 565.3875 51.973064Q566.73126 51.973064 567.4969 52.379314Q568.27814 52.76994 568.66876 53.55119Q569.075 54.316814 569.075 55.535564L569.075 55.816814ZM566.65314 54.67619Q566.59064 53.973064 566.27814 53.67619Q565.98126 53.379314 565.48126 53.379314Q564.91876 53.379314 564.575 53.83244Q564.35626 54.11369 564.3094 54.67619L566.65314 54.67619ZM570.2 52.11369L572.4344 52.11369L572.4344 53.129314Q572.7469 52.473064 573.09064 52.223064Q573.4344 51.973064 573.9344 51.973064Q574.46564 51.973064 575.09064 52.30119L574.35626 53.98869Q573.9344 53.816814 573.6844 53.816814Q573.21564 53.816814 572.96564 54.20744Q572.59064 54.754314 572.59064 56.23869L572.59064 58.33244L570.2 58.33244L570.2 52.11369ZM574.7469 56.61369L577.1219 56.379314Q577.2625 56.80119 577.52814 56.98869Q577.79376 57.17619 578.23126 57.17619Q578.71564 57.17619 578.98126 56.973064Q579.1844 56.816814 579.1844 56.58244Q579.1844 56.33244 578.90314 56.191814Q578.71564 56.08244 577.8875 55.941814Q576.6375 55.723064 576.15314 55.535564Q575.66876 55.348064 575.34064 54.910564Q575.0125 54.473064 575.0125 53.910564Q575.0125 53.30119 575.3719 52.86369Q575.73126 52.410564 576.35626 52.191814Q576.98126 51.973064 578.04376 51.973064Q579.15314 51.973064 579.6844 52.14494Q580.21564 52.30119 580.5594 52.660564Q580.91876 53.01994 581.15314 53.629314L578.8875 53.848064Q578.8094 53.55119 578.60626 53.410564Q578.325 53.223064 577.91876 53.223064Q577.5125 53.223064 577.325 53.379314Q577.15314 53.51994 577.15314 53.723064Q577.15314 53.941814 577.3875 54.066814Q577.6219 54.17619 578.40314 54.26994Q579.59064 54.410564 580.16876 54.660564Q580.7469 54.89494 581.0594 55.348064Q581.3719 55.785564 581.3719 56.316814Q581.3719 56.848064 581.04376 57.36369Q580.71564 57.879314 580.0125 58.17619Q579.3094 58.473064 578.10626 58.473064Q576.40314 58.473064 575.66876 57.98869Q574.95 57.504314 574.7469 56.61369Z" fill-rule="nonzero"/><path fill="#9e9e9e" d="M554.04376 73.72307L549.7 73.72307L549.7 71.76994L554.04376 66.59807L556.1219 66.59807L556.1219 71.87932L557.2 71.87932L557.2 73.72307L556.1219 73.72307L556.1219 75.33244L554.04376 75.33244L554.04376 73.72307ZM554.04376 71.87932L554.04376 69.17619L551.7469 71.87932L554.04376 71.87932ZM558.1844 72.94182L560.73126 72.94182L560.73126 75.33244L558.1844 75.33244L558.1844 72.94182ZM561.95 71.00432Q561.95 68.55119 562.825 67.58244Q563.7 66.59807 565.5125 66.59807Q566.3719 66.59807 566.9344 66.81682Q567.4969 67.01994 567.84064 67.36369Q568.2 67.70744 568.40314 68.08244Q568.60626 68.45744 568.71564 68.97307Q568.96564 69.92619 568.96564 70.97307Q568.96564 73.31682 568.16876 74.39494Q567.3875 75.47307 565.45 75.47307Q564.35626 75.47307 563.6844 75.12932Q563.02814 74.78557 562.60626 74.11369Q562.29376 73.64494 562.1219 72.83244Q561.95 72.00432 561.95 71.00432ZM564.3094 71.00432Q564.3094 72.64494 564.59064 73.25432Q564.8875 73.84807 565.4344 73.84807Q565.8094 73.84807 566.075 73.59807Q566.34064 73.33244 566.46564 72.78557Q566.59064 72.23869 566.59064 71.06682Q566.59064 69.36369 566.29376 68.76994Q566.0125 68.17619 565.4344 68.17619Q564.84064 68.17619 564.575 68.78557Q564.3094 69.37932 564.3094 71.00432ZM577.325 66.59807L578.5594 66.59807L573.60626 75.76994L572.3719 75.76994L577.325 66.59807ZM570.02814 68.84807Q570.02814 68.25432 570.29376 67.72307Q570.5594 67.17619 571.09064 66.89494Q571.6219 66.59807 572.35626 66.59807Q573.4344 66.59807 574.0594 67.22307Q574.6844 67.83244 574.6844 68.84807Q574.6844 69.87932 574.0594 70.50432Q573.4344 71.11369 572.35626 71.11369Q571.6219 71.11369 571.09064 70.83244Q570.5594 70.53557 570.29376 70.00432Q570.02814 69.45744 570.02814 68.84807ZM571.6844 68.86369Q571.6844 69.58244 571.91876 69.91057Q572.0594 70.12932 572.35626 70.12932Q572.65314 70.12932 572.79376 69.91057Q573.02814 69.58244 573.02814 68.86369Q573.02814 68.14494 572.79376 67.80119Q572.65314 67.59807 572.35626 67.59807Q572.0594 67.59807 571.91876 67.80119Q571.6844 68.12932 571.6844 68.86369ZM576.23126 73.50432Q576.23126 72.89494 576.48126 72.36369Q576.7469 71.81682 577.27814 71.53557Q577.825 71.23869 578.54376 71.23869Q579.6219 71.23869 580.2469 71.86369Q580.8719 72.47307 580.8719 73.50432Q580.8719 74.51994 580.2469 75.14494Q579.6219 75.75432 578.54376 75.75432Q577.825 75.75432 577.27814 75.45744Q576.7469 75.17619 576.48126 74.64494Q576.23126 74.09807 576.23126 73.50432ZM577.8719 73.50432Q577.8719 74.23869 578.10626 74.56682Q578.2469 74.76994 578.54376 74.76994Q578.84064 74.76994 578.9969 74.56682Q579.23126 74.23869 579.23126 73.50432Q579.23126 72.78557 578.9969 72.44182Q578.84064 72.23869 578.54376 72.23869Q578.2469 72.23869 578.10626 72.45744Q577.8719 72.78557 577.8719 73.50432Z" fill-rule="nonzero"/><path stroke="#757575" stroke-width="1.0" stroke-linecap="butt" d="M581.45 62.83244L472.95 62.83244L319.87817 62.83244" fill-rule="nonzero"/><path fill="#9e9e9e" d="M321.87817 62.83244C321.87817 61.72787 320.98273 60.83244 319.87817 60.83244C318.7736 60.83244 317.87817 61.72787 317.87817 62.83244C317.87817 63.937008 318.7736 64.83244 319.87817 64.83244C320.98273 64.83244 321.87817 63.937008 321.87817 62.83244" fill-rule="nonzero"/><path fill="#b7b7b7" d="M532.8719 186.4384L535.3875 186.28215Q535.48126 186.89153 535.73126 187.21965Q536.1375 187.73528 536.90314 187.73528Q537.46564 187.73528 537.7625 187.46965Q538.075 187.20403 538.075 186.86028Q538.075 186.51653 537.79376 186.2509Q537.4969 186.0009 536.4344 185.76653Q534.6844 185.36028 533.9344 184.71965Q533.1844 184.0634 533.1844 183.0634Q533.1844 182.39153 533.5594 181.8134Q533.95 181.21965 534.71564 180.89153Q535.4969 180.54778 536.84064 180.54778Q538.48126 180.54778 539.34064 181.15715Q540.21564 181.76653 540.3719 183.11028L537.8719 183.2509Q537.77814 182.67278 537.45 182.40715Q537.1375 182.14153 536.575 182.14153Q536.10626 182.14153 535.8719 182.34465Q535.6375 182.53215 535.6375 182.8134Q535.6375 183.01653 535.84064 183.1884Q536.02814 183.36028 536.73126 183.5009Q538.46564 183.8759 539.21564 184.26653Q539.98126 184.64153 540.3094 185.21965Q540.65314 185.78215 540.65314 186.48528Q540.65314 187.3134 540.2 188.01653Q539.7469 188.70403 538.91876 189.0634Q538.10626 189.42278 536.85626 189.42278Q534.66876 189.42278 533.825 188.57903Q532.98126 187.73528 532.8719 186.4384ZM541.48126 183.0634L543.9969 183.0634L545.27814 187.20403L546.46564 183.0634L548.825 183.0634L546.35626 189.70403Q545.9344 190.84465 545.4969 191.2509Q544.8719 191.8134 543.60626 191.8134Q543.09064 191.8134 542.0125 191.67278L541.825 190.0009Q542.34064 190.17278 542.96564 190.17278Q543.3875 190.17278 543.65314 189.96965Q543.91876 189.78215 544.09064 189.28215L541.48126 183.0634ZM549.16876 183.0634L551.3875 183.0634L551.3875 184.07903Q551.8875 183.45403 552.3875 183.1884Q552.90314 182.92278 553.6375 182.92278Q554.6375 182.92278 555.1844 183.51653Q555.7469 184.09465 555.7469 185.32903L555.7469 189.28215L553.35626 189.28215L553.35626 185.86028Q553.35626 185.26653 553.1375 185.03215Q552.91876 184.78215 552.52814 184.78215Q552.09064 184.78215 551.825 185.11028Q551.5594 185.4384 551.5594 186.29778L551.5594 189.28215L549.16876 189.28215L549.16876 183.0634ZM563.04376 185.76653L565.3719 186.46965Q565.1375 187.45403 564.6375 188.11028Q564.1375 188.76653 563.3875 189.11028Q562.6375 189.4384 561.48126 189.4384Q560.09064 189.4384 559.2 189.03215Q558.3094 188.6259 557.65314 187.59465Q557.0125 186.5634 557.0125 184.96965Q557.0125 182.82903 558.15314 181.6884Q559.29376 180.54778 561.35626 180.54778Q562.98126 180.54778 563.90314 181.20403Q564.84064 181.86028 565.29376 183.21965L562.95 183.73528Q562.825 183.34465 562.6844 183.15715Q562.46564 182.86028 562.1375 182.70403Q561.825 182.53215 561.41876 182.53215Q560.52814 182.53215 560.04376 183.2509Q559.6844 183.79778 559.6844 184.95403Q559.6844 186.3759 560.10626 186.90715Q560.54376 187.4384 561.325 187.4384Q562.09064 187.4384 562.48126 187.01653Q562.8719 186.57903 563.04376 185.76653ZM566.2625 180.6884L568.6375 180.6884L568.6375 182.3134L566.2625 182.3134L566.2625 180.6884ZM566.2625 183.0634L568.6375 183.0634L568.6375 189.28215L566.2625 189.28215L566.2625 183.0634ZM573.04376 180.6884L573.04376 183.0634L574.35626 183.0634L574.35626 184.79778L573.04376 184.79778L573.04376 187.0009Q573.04376 187.40715 573.1219 187.53215Q573.2469 187.73528 573.52814 187.73528Q573.79376 187.73528 574.27814 187.57903L574.45 189.23528Q573.5594 189.42278 572.79376 189.42278Q571.90314 189.42278 571.48126 189.20403Q571.0594 188.96965 570.85626 188.5009Q570.65314 188.03215 570.65314 186.98528L570.65314 184.79778L569.77814 184.79778L569.77814 183.0634L570.65314 183.0634L570.65314 181.92278L573.04376 180.6884ZM574.48126 183.0634L576.9969 183.0634L578.27814 187.20403L579.46564 183.0634L581.825 183.0634L579.35626 189.70403Q578.9344 190.84465 578.4969 191.2509Q577.8719 191.8134 576.60626 191.8134Q576.09064 191.8134 575.0125 191.67278L574.825 190.0009Q575.34064 190.17278 575.96564 190.17278Q576.3875 190.17278 576.65314 189.96965Q576.91876 189.78215 577.09064 189.28215L574.48126 183.0634Z" fill-rule="nonzero"/><path fill="#9e9e9e" d="M546.04376 204.67278L541.7 204.67278L541.7 202.71965L546.04376 197.54778L548.1219 197.54778L548.1219 202.82903L549.2 202.82903L549.2 204.67278L548.1219 204.67278L548.1219 206.28215L546.04376 206.28215L546.04376 204.67278ZM546.04376 202.82903L546.04376 200.1259L543.7469 202.82903L546.04376 202.82903ZM551.3719 201.65715Q550.8094 201.36028 550.5594 201.0009Q550.2 200.48528 550.2 199.82903Q550.2 198.7509 551.21564 198.07903Q552.0125 197.54778 553.3094 197.54778Q555.02814 197.54778 555.85626 198.20403Q556.6844 198.86028 556.6844 199.86028Q556.6844 200.4384 556.35626 200.9384Q556.10626 201.3134 555.575 201.65715Q556.27814 202.0009 556.6219 202.54778Q556.96564 203.09465 556.96564 203.76653Q556.96564 204.40715 556.66876 204.96965Q556.3719 205.53215 555.9344 205.84465Q555.5125 206.14153 554.8719 206.28215Q554.23126 206.42278 553.4969 206.42278Q552.1375 206.42278 551.41876 206.11028Q550.7 205.78215 550.325 205.15715Q549.95 204.53215 549.95 203.7509Q549.95 203.0009 550.29376 202.48528Q550.65314 201.95403 551.3719 201.65715ZM552.45 199.96965Q552.45 200.42278 552.73126 200.70403Q553.0125 200.96965 553.46564 200.96965Q553.8875 200.96965 554.1375 200.70403Q554.40314 200.42278 554.40314 200.0009Q554.40314 199.54778 554.1219 199.28215Q553.85626 199.0009 553.4344 199.0009Q552.9969 199.0009 552.71564 199.28215Q552.45 199.54778 552.45 199.96965ZM552.325 203.67278Q552.325 204.23528 552.66876 204.61028Q553.0125 204.96965 553.46564 204.96965Q553.8875 204.96965 554.21564 204.61028Q554.5594 204.23528 554.5594 203.67278Q554.5594 203.09465 554.21564 202.73528Q553.8875 202.3759 553.4344 202.3759Q552.98126 202.3759 552.65314 202.73528Q552.325 203.07903 552.325 203.67278ZM558.1844 203.89153L560.73126 203.89153L560.73126 206.28215L558.1844 206.28215L558.1844 203.89153ZM561.95 201.95403Q561.95 199.5009 562.825 198.53215Q563.7 197.54778 565.5125 197.54778Q566.3719 197.54778 566.9344 197.76653Q567.4969 197.96965 567.84064 198.3134Q568.2 198.65715 568.40314 199.03215Q568.60626 199.40715 568.71564 199.92278Q568.96564 200.8759 568.96564 201.92278Q568.96564 204.26653 568.16876 205.34465Q567.3875 206.42278 565.45 206.42278Q564.35626 206.42278 563.6844 206.07903Q563.02814 205.73528 562.60626 205.0634Q562.29376 204.59465 562.1219 203.78215Q561.95 202.95403 561.95 201.95403ZM564.3094 201.95403Q564.3094 203.59465 564.59064 204.20403Q564.8875 204.79778 565.4344 204.79778Q565.8094 204.79778 566.075 204.54778Q566.34064 204.28215 566.46564 203.73528Q566.59064 203.1884 566.59064 202.01653Q566.59064 200.3134 566.29376 199.71965Q566.0125 199.1259 565.4344 199.1259Q564.84064 199.1259 564.575 199.73528Q564.3094 200.32903 564.3094 201.95403ZM577.325 197.54778L578.5594 197.54778L573.60626 206.71965L572.3719 206.71965L577.325 197.54778ZM570.02814 199.79778Q570.02814 199.20403 570.29376 198.67278Q570.5594 198.1259 571.09064 197.84465Q571.6219 197.54778 572.35626 197.54778Q573.4344 197.54778 574.0594 198.17278Q574.6844 198.78215 574.6844 199.79778Q574.6844 200.82903 574.0594 201.45403Q573.4344 202.0634 572.35626 202.0634Q571.6219 202.0634 571.09064 201.78215Q570.5594 201.48528 570.29376 200.95403Q570.02814 200.40715 570.02814 199.79778ZM571.6844 199.8134Q571.6844 200.53215 571.91876 200.86028Q572.0594 201.07903 572.35626 201.07903Q572.65314 201.07903 572.79376 200.86028Q573.02814 200.53215 573.02814 199.8134Q573.02814 199.09465 572.79376 198.7509Q572.65314 198.54778 572.35626 198.54778Q572.0594 198.54778 571.91876 198.7509Q571.6844 199.07903 571.6844 199.8134ZM576.23126 204.45403Q576.23126 203.84465 576.48126 203.3134Q576.7469 202.76653 577.27814 202.48528Q577.825 202.1884 578.54376 202.1884Q579.6219 202.1884 580.2469 202.8134Q580.8719 203.42278 580.8719 204.45403Q580.8719 205.46965 580.2469 206.09465Q579.6219 206.70403 578.54376 206.70403Q577.825 206.70403 577.27814 206.40715Q576.7469 206.1259 576.48126 205.59465Q576.23126 205.04778 576.23126 204.45403ZM577.8719 204.45403Q577.8719 205.1884 578.10626 205.51653Q578.2469 205.71965 578.54376 205.71965Q578.84064 205.71965 578.9969 205.51653Q579.23126 205.1884 579.23126 204.45403Q579.23126 203.73528 578.9969 203.39153Q578.84064 203.1884 578.54376 203.1884Q578.2469 203.1884 578.10626 203.40715Q577.8719 203.73528 577.8719 204.45403Z" fill-rule="nonzero"/><path stroke="#757575" stroke-width="1.0" stroke-linecap="butt" d="M581.45 193.78215L472.95 193.78215L455.7932 193.78215" fill-rule="nonzero"/><path fill="#9e9e9e" d="M457.7932 193.78215C457.7932 192.67758 456.8978 191.78215 455.7932 191.78215C454.68863 191.78215 453.7932 192.67758 453.7932 193.78215C453.7932 194.88672 454.68863 195.78215 455.7932 195.78215C456.8978 195.78215 457.7932 194.88672 457.7932 193.78215" fill-rule="nonzero"/></svg>